<?xml version="1.0" standalone="no"?>
<!DOCTYPE svg PUBLIC "-//W3C//DTD SVG 1.1//EN" "http://www.w3.org/Graphics/SVG/1.1/DTD/svg11.dtd">
<svg xmlns="http://www.w3.org/2000/svg">
<metadata>Copyright (C) 2015 by original authors @ fontello.com</metadata>
<defs>
<font id="mercury" horiz-adv-x="1000" >
<font-face font-family="mercury" font-weight="400" font-stretch="normal" units-per-em="1000" ascent="850" descent="-150" />
<missing-glyph horiz-adv-x="1000" />
<glyph glyph-name="01" unicode="&#xe800;" d="m317 463c62 3 100-24 117-40-26-4-63 2-77 6-6 1-12-2-13-8-1-6 2-12 8-13 5-1 33-7 62-7 16 0 32 1 44 7 3 2 5 4 6 7 0 3 0 7-2 9-2 3-49 65-146 60-6 0-10-5-10-11 0-6 5-10 11-10z m105-121c136 21 226 66 263 87 23-14 86-47 94-51 4-2 8-2 12 1 3 3 4 8 3 12l-34 89 24 117c1 5-2 10-7 12-4 2-9 0-12-4-18-23-66-84-88-105-19 7-76 31-139 50-2 2-4 4-5 5-108 94-181 97-184 97-5 0-9-2-11-6-21-53-29-80-29-81 0-1 0-1 0-2-43-13-83-31-108-43-16-8-95-48-99-68-2-5 1-10 5-13 9-6 13-10 15-12-2-1-4-1-5-2-3-1-9-4-10-11 0-4 2-8 5-10 25-16 115-68 239-68 24 0 48 2 71 6z m-67 288c18-3 66-15 132-66-34 9-67 15-95 15-6 0-12-1-18-1-14-2-27-5-41-8 4 11 11 32 22 60z m-228-179c10 9 35 25 67 42 0-1 0-2 0-3 0-9 7-16 16-16 9 0 16 7 16 16 0 6-4 11-9 14 49 24 109 46 159 53 5 0 11 0 16 0 96 0 281-79 283-80 4-1 8-1 11 2 15 12 45 49 68 78l-15-76c0-2 0-4 0-6l25-65c-31 16-65 35-72 40-4 3-8 3-12 1-32-19-122-66-261-88-23-4-45-6-68-6-101 0-178 36-213 56 3 3 5 7 6 12 1 11-8 19-17 26z m557-255c-97 5-144-57-145-60-2-3-3-6-2-9 1-3 3-6 5-7 13-6 28-8 44-8 29 0 58 7 62 8 6 1 10 7 8 13-1 5-7 9-12 8-15-4-52-10-78-6 18 16 56 43 117 40 6 0 11 4 11 10 1 6-4 11-10 11z m215-32c-5 20-84 60-99 68-25 12-65 30-108 43 0 0 0 1 0 1-1 1-9 29-30 82-2 4-6 6-10 6-3 0-77-3-185-98-1-1-4-3-8-5-61-19-117-42-136-50-22 21-69 83-87 106-3 4-9 6-13 4-5-2-7-7-6-12l23-117-33-89c-2-5-1-9 3-12 3-3 8-4 12-2 8 5 71 38 93 52 38-21 128-66 263-88 24-3 48-5 72-5 123 0 213 52 238 68 3 2 5 6 5 10 0 7-6 9-10 11-1 0-3 1-4 2 1 2 5 6 14 12 5 2 7 8 6 13z m-254 178c12-29 19-49 23-60-14 3-28 6-42 7-5 1-11 2-18 2-27 0-61-6-95-15 67 50 115 63 132 66z m211-205c1-5 3-9 6-12-35-20-112-56-212-56-23 0-46 2-69 5-139 23-229 70-261 89-1 1-3 1-5 1-2 0-5 0-7-2-6-5-41-24-72-40l25 65c1 2 1 4 0 6l-15 76c23-29 54-66 68-78 4-3 8-3 11-2 2 1 187 80 283 80 6 0 11 0 16-1 51-6 112-29 161-53-6-2-11-8-11-15 0-9 8-16 17-16 8 0 16 7 16 16 0 1-1 3-1 5 32-17 57-33 68-42-10-7-18-16-18-26z" horiz-adv-x="1000" />
<glyph glyph-name="02" unicode="&#xe801;" d="m902 146l-27 87c-1 3-3 5-6 6l-103 49c-3 1-6 1-9 0l-55-22c3 11 3 19 2 27-2 10-7 18-20 30 0 0 1 0 1 0l94 96c6 3 25 15 31 33 11 28 0 62-17 78 1 1 1 1 2 2 8 15 20 58-53 127-1 0-1 0-1 1-96 77-200 8-201 7-3-2-4-5-4-8 0-4 2-7 5-9 46-31 81-41 117-35 9 2 16-6 20-11 9-12 14-32 9-42 0 0 0-1 0-1-6 2-11 5-16 8-22 13-46 26-86 9-3-1-5-4-6-7-1-3 0-6 1-8 12-18 64-95 109-100-12-23-36-63-58-100-37 24-83 46-128 46l-2 0-3 0c-46 0-92-22-129-46-22 37-45 77-58 100 45 5 98 82 109 100 2 2 2 5 1 8-1 3-3 6-6 7-40 17-63 4-86-9-5-3-10-6-15-8 0 0-1 1-1 1-5 10 0 30 10 42 4 5 11 13 19 11 36-6 71 4 118 35 3 2 5 5 5 9 0 3-2 6-5 8-1 1-105 70-200-7-1-1-1-1-1-1-73-69-61-112-53-127 0-1 1-1 1-2-17-16-27-50-17-78 7-18 25-30 31-33l95-96c0 0 0 0 0 0-12-12-18-20-19-30-2-8-2-16 1-27l-55 22c-3 1-6 1-8 0l-103-49c-3-1-5-3-6-6l-27-87c-1-4 0-8 3-11l29-23-8-21c-2-5-1-9 2-12l52-47c2-1 4-2 7-2 3 0 6 1 8 3 1 1 1 2 2 4l9-30c1-4 4-6 7-7l65-16c0 0 1 0 2 0 5 0 9 3 10 8 2 5-2 11-7 13l-59 14-17 60 61 77 95-26c1-1 3-1 5 0 9-13 17-23 26-31l-42-33c-3-3-5-8-3-12l24-64c1-2 3-5 6-6l56-21c2 0 3 0 4 0 4 0 8 2 10 6 2 6-1 12-6 14l-52 20-19 51 40 33c3-1 5-2 8-3 24-4 55-8 72-9v-1l11 0 0 11 1-11 0 0 11 0v1c16 1 48 5 72 9 2 1 5 2 7 3l41-33-19-51-52-20c-6-2-9-8-7-14 2-4 6-6 10-6 2 0 3 0 4 0l57 21c3 1 5 4 6 6l24 64c1 4 0 9-4 12l-41 33c8 8 17 18 26 31 1-1 3-1 5 0l94 26 62-77-18-60-58-14c-6-2-9-8-8-13 1-5 6-8 10-8 1 0 2 0 3 0l64 16c4 1 7 3 8 7l9 30c0-2 1-3 2-4 2-2 5-3 8-3 2 0 5 1 7 2l51 47c3 3 5 7 3 12l-8 21 28 23c4 3 5 7 4 11z m-253 205c20 34 68 115 71 125 1 4-1 9-4 11-3 3-8 3-12 1l-1 0c-1-1-2-1-3-2-21-11-65 35-94 77 23 6 37-2 55-13 9-5 18-10 28-14 3-1 7-1 10 1 2 2 4 4 5 8 0 2 1 5 2 8 10 19 1 48-12 64-11 15-25 22-40 19-19-3-44-3-87 22 30 14 97 36 160-15 43-40 61-78 49-101-1-2-3-5-6-8-2-3-3-6-2-10 1-3 3-5 7-7 11-4 25-33 15-58-4-11-17-20-22-22-1-1-2-1-3-2l-95-97c-1-1-1-1-2-2-1 1-2 2-3 2-5 5-11 9-16 13 0 0 0 0 0 0z m-318-13l-96 97c0 1-1 1-2 2-5 2-19 11-23 22-9 25 5 54 16 58 3 2 5 4 6 7 1 4 0 7-2 10-2 3-4 6-5 8-13 23 5 61 48 101 64 52 131 29 160 15-43-25-68-25-87-22-14 3-29-4-40-19-13-16-21-45-12-64 1-3 2-6 3-8 0-4 2-6 5-8 3-2 6-2 9-1 11 4 20 9 29 14 18 11 32 19 55 13-29-42-73-88-94-77-2 1-3 1-4 2l-1 0c-4 2-8 2-11-1-4-2-5-7-4-11 3-10 50-91 70-125 1 0 1 0 1 0-6-4-11-8-17-13-1 0-2-1-3-2 0 1-1 1-1 2z m-210-191l24 75 95 44 68-27c3-7 5-13 8-19l-70 16c-3 0-6 0-8-2l-82-63c-1-1-2-3-3-5l-14-34-18 15z m143 31c-4 2-8 0-11-3l-70-87c-2-3-2-7-1-10l8-29-45 41 3 7 2-1c2-1 4-2 6-2 3 0 6 1 9 4 3 4 3 11-2 15l-6 5 15 38 75 58 80-19c0 0 0 0 1 0 7-15 14-28 21-40l-85 23z m315-73c-28-5-69-9-78-10l-1 0 0 0c-9 1-51 5-79 10-23 5-58 58-94 143-11 26-11 34-10 42 2 6 6 12 32 32 38 30 94 65 149 65l1 0 4 0c54 0 111-35 149-65 25-20 30-26 31-32 1-8 1-16-10-42-36-85-71-138-94-143z m276-15l-45-41 9 29c1 3 0 7-2 10l-70 87c-2 3-7 5-11 3l-84-23c7 12 14 25 21 40 0 0 0 0 0 0l81 19 75-58 15-38-7-5c-4-4-5-11-1-15 2-3 5-4 8-4 3 0 5 1 7 2l1 1 3-7z m6 42l-13 34c-1 2-2 4-4 5l-81 63c-3 2-6 2-9 2l-70-16c3 6 6 12 9 19l68 27 95-44 23-75-18-15z m-429 212c-10 0-18-8-18-19 0-10 8-18 18-18 11 0 19 8 19 18 0 11-8 19-19 19z m136 0c-10 0-18-8-18-19 0-10 8-18 18-18 10 0 19 8 19 18 0 11-9 19-19 19z" horiz-adv-x="1000" />
<glyph glyph-name="03" unicode="&#xe802;" d="m901 490c0 63-30 116-87 154-52 35-124 54-202 54-77 0-147-19-197-54-54-38-83-91-83-154 0-16 3-32 10-48-63-5-119-23-161-52-54-38-83-91-83-154 0-76 75-138 119-167 64-43 133-68 164-68 1 0 1 0 2 0 30 1 101 27 163 68 55 36 121 94 121 167 0 10-1 20-3 30 82 28 237 115 237 224z m-519-468c0 0-1 0-1 0-27 0-94 26-152 64-41 28-110 84-110 150 0 111 104 187 259 187 158 0 268-77 268-187 0-116-211-212-264-214z m198 368c-47 31-109 50-178 53-5 5-5 9-5 11 0 16 17 26 36 38 12 7 24 14 32 23 9 10 14 23 20 38 7 19 15 38 30 43 10 3 26-5 41-14 17-8 35-18 52-18 18 0 36 9 52 18 16 9 33 17 44 14 15-5 23-25 31-44 6-14 12-28 21-37 8-9 21-16 32-23 20-11 38-22 38-38 0-11-19-21-37-31-14-7-29-14-39-24-10-10-14-24-18-38-7-23-14-47-45-63 0 0 0 0 0 0-10-4-19-8-27-11-13 41-39 76-80 103z m161-66c5 11 8 22 11 31 4 12 7 23 13 28 8 8 21 15 34 22 24 12 48 25 48 49 0 28-25 43-48 56-11 7-21 13-28 20-6 6-11 18-17 31-9 22-20 47-44 55-19 6-40-5-59-15-15-7-30-15-43-15-12 0-27 8-42 15-19 10-39 21-58 15-24-8-34-33-43-56-5-12-9-24-15-30-7-7-17-13-28-20-22-13-47-28-47-56 0-3 1-7 2-10-4 0-8 0-13 0-7 15-11 31-11 46 0 112 104 187 259 187 158 0 268-77 268-187 0-63-67-125-139-166z m-363 47c-131 0-223-64-229-160 0-6 5-11 10-12 6 0 11 5 12 10 5 84 88 141 207 141 120 0 208-58 214-141 0-5 5-10 10-10 0 0 1 0 1 0 6 1 10 6 10 12-6 94-103 160-235 160z m0-82c-107 0-182-53-187-132-1-6 4-11 10-11 6-1 11 4 11 10 4 67 71 112 166 112 97 0 168-46 172-113 1-5 5-9 11-9 0 0 0 0 1 0 5 0 10 5 9 11-5 78-84 132-193 132z m1-88c-73 0-124-36-127-91-1-5 4-10 10-11 6 0 11 4 11 10 3 42 45 71 106 71 62 0 108-29 110-71 1-6 5-10 11-10 0 0 0 0 1 0 5 1 10 6 9 11-3 54-57 91-131 91z" horiz-adv-x="1000" />
<glyph glyph-name="04" unicode="&#xe803;" d="m904 488v111h-79v70h-336v-70h-72v-111h52l8-43c-41 33-92 53-148 53-129 0-233-105-233-233 0-129 104-233 233-233 84 0 158 44 199 111l18-100h246l21 125c1 1 1 3 1 5 0 0 0 1 0 1l10 61c2 1 3 4 3 6 0 1 0 3-1 4l42 243h36z m-394 159h294v-48h-294v48z m-72-70h444v-68h-444v68z m-109-101c116 0 212-95 212-211 0-2-1-3-1-5 0 0 0-1-1-1-34-70-111-114-194-114-23 0-46 3-67 10l-12 3-2-12c-2-10-10-18-21-18-11 0-20 10-20 21v47h-22c0-8-6-15-14-15-8 0-14 7-14 15v32l-5 3c0 0 0 1-1 1-23 33-35 70-35 109 0 0 0 1 0 1 31 79 107 134 197 134z m0-423c-117 0-212 95-212 212 0 7 0 14 1 21 6-23 17-46 32-66 1-1 1-2 2-2v-22c0-20 16-36 35-36 5 0 10 1 14 3v-14c0-23 19-42 42-42 17 0 32 10 39 25 20-6 42-9 63-9 75 0 145 34 189 88-24-91-107-158-205-158z m512 407h-174c-6 0-11-5-11-10 0-6 5-11 11-11h171l-8-47h-163c-6 0-11-5-11-11 0-6 5-11 11-11h159l-8-47h-151c-6 0-11-5-11-10 0-6 5-11 11-11h147l-8-50h-139c-6 0-11-5-11-11 0-6 5-10 11-10h135l-8-48h-127c-6 0-11-4-11-10 0-6 5-11 11-11h123l-8-47h-115c-6 0-11-5-11-11 0-6 5-10 11-10h112l-5-30h-211l-19 110c0 0 0 0 0 0 11 28 18 59 18 91 0 59-23 113-59 155l-12 68h355l-5-28z m-512-285c49 0 90 40 90 90 0 49-41 90-90 90-50 0-90-41-90-90 0-50 40-90 90-90z m0 158c38 0 68-31 68-68 0-38-30-69-68-69-38 0-69 31-69 69 0 37 31 68 69 68z m-57 81c9 0 17 8 17 17 0 9-8 17-17 17-9 0-17-8-17-17 0-9 8-17 17-17z m88-41c9 0 16 7 16 17 0 9-7 16-16 16-10 0-17-7-17-16 0-10 7-17 17-17z m120-35c9 0 16 8 16 17 0 9-7 17-16 17-10 0-17-8-17-17 0-9 7-17 17-17z m-28-113c10 0 17 7 17 16 0 10-7 17-17 17-9 0-16-7-16-17 0-9 7-16 16-16z m239 411h-67c-6 0-11-4-11-10 0-6 5-11 11-11h67c6 0 10 5 10 11 0 6-4 10-10 10z" horiz-adv-x="1000" />
<glyph glyph-name="05" unicode="&#xe804;" d="m902 496h-72v67h-150l20 103 87 52c5 3 6 10 3 15-3 5-9 7-14 4l-91-55c0 0 0 0 0 0 0 0 0 0-1-1 0 0 0 0 0 0-1 0-1-1-1-1 0 0-1 0-1-1 0 0 0 0 0-1-1 0-1 0-1-1 0 0 0 0 0 0 0-1 0-1 0-2 0 0-1 0-1 0l-21-112h-153v-67h-73v-107h51l50-296h-365l1-1-36 0-2-1c-20-4-34-20-34-39 0-18 14-34 34-39l2 0 172-1c0 0 0 0 0 0 1 0 2 0 3 0l46-26 180 103 22-129h237l74 429h34v107z m-766-462c-10 3-17 10-17 18 0 8 7 16 17 18l70 1 67-38-137 1z m219-23l-106 60h212l-106-60z m172 531h282v-46h-282v46z m270-438h-243l-32 187h307l-32-187z m-222-122l-17 101h236l-18-101h-201z m258 330h-315l-13 77h341l-13-77z m48 98h-426v65h426v-65z m-722-301c18 0 35 9 44 21 10-12 27-21 45-21 19 0 35 9 45 21 10-12 26-21 45-21 18 0 34 8 44 21 10-12 26-20 43-20 27 0 49 17 54 40 1 1 1 3 1 5v24h0v11c0 104-84 188-188 188-104 0-188-84-188-188v-5-6-23c0-1 0-2 0-4 4-24 27-43 55-43z m133 248c89 0 161-69 167-157h-334c6 88 79 157 167 157z m167-178v-19c0-16-15-28-34-28-16 0-30 10-33 24 0 1 1 2 1 3 0 1-1 3-2 4-1 4-5 7-10 7-5 0-10-5-10-10 0-2 0-3 0-5-2-14-16-24-33-24-19 0-34 12-34 28 0 5-4 10-10 10 0 0-1 0-1 0 0 0 0 0-1 0-6 0-10-5-10-10 0-16-15-28-34-28-18 0-33 12-33 28 0 5-5 10-11 10 0 0 0 0-1 0 0 0 0 0 0 0-6 0-11-5-11-10 0-16-15-28-33-28-19 0-34 12-34 28 0 0 0 1 0 2v18h334z m20-194h-343c-6 0-10-5-10-11 0-5 4-10 10-10h343c6 0 10 5 10 10 0 6-4 11-10 11z m-265 308c-9 0-17-7-17-16 0-9 8-16 17-16 8 0 16 7 16 16 0 9-8 16-16 16z m79 41c-9 0-16-7-16-16 0-9 7-16 16-16 9 0 16 7 16 16 0 9-7 16-16 16z m80-41c-9 0-17-7-17-16 0-9 8-16 17-16 9 0 16 7 16 16 0 9-7 16-16 16z" horiz-adv-x="1000" />
<glyph glyph-name="06" unicode="&#xe805;" d="m308 286c6 0 11 5 11 11 0 6-5 11-11 11-9 0-16 7-16 16 0 11 10 20 21 17l13-4 1 13c1 16 14 29 30 29 17 0 31-14 31-31 0-6 5-10 11-10 5 0 10 4 10 10 0 29-23 52-52 52-23 0-43-16-50-37-20-1-37-18-37-39 0-21 17-38 38-38z m225 37c5 8 7 18 7 28-1 30-27 55-57 55 0 0-1 0-1 0-3 32-32 57-65 56-10 0-20-3-29-8-11 15-29 24-48 24-24-1-44-17-51-40-6 1-12 2-17 2-34-2-61-24-69-56-13-2-26-8-35-18-10-11-16-26-15-41 0-2 0-4 1-7-11-9-18-22-20-36h0l0-1c-1-3-1-6-1-9 0-3 2-5 4-7l5-33 51-249 5-32h287l64 325c2 2 3 4 3 7-1 15-8 29-19 40z m-362-18l7 4-2 8c-1 3-2 6-2 9 0 10 3 19 10 26 6 7 15 11 24 11 1 0 3 0 4 0l10-1 1 10c3 26 24 45 50 46 7 1 14 0 20-3l13-5 1 14c2 18 16 32 34 32 14 1 28-8 33-22l6-14 11 10c7 7 17 10 27 11 23 1 42-18 43-41 0-2 0-3 0-6l-1-15 14 4c3 1 5 1 8 1 19 1 36-14 36-34 1-8-2-17-7-23l-7-10 10-6c10-6 16-17 16-29 0 0 0 0 0 0h-98l-2-9c-7-43-44-75-88-75-44 0-81 32-89 75l-1 9h-97c2 9 8 18 16 23z m211-333l9 216c28 14 50 40 58 73h9l-41-289h-35z m-108 0l-44 289h4c9-34 33-62 64-75l8-214h-32z m45 207c8-1 15-2 23-2 9 0 18 1 27 3l-8-208h-34l-8 207z m-106-192l-50 249-4 25h50l43-289h-36l-3 15z m255-15h-29l40 289h45l-56-289z m348 474c32 26 50 63 50 101 0 32-25 65-73 97 0 0 0 0 0 1v71c0 20-14 35-32 35h-95c-18 0-33-15-33-35v-71c0-1 1-2 1-3-46-32-70-63-70-95 0-38 19-75 50-101-31-26-48-62-48-100l-1-310c0-49 40-89 89-89h122c49 0 89 40 89 89l-1 310c0 38-17 74-48 100z m27-111l0-25h-256l0 25h256z m-256-46h256l1-225h-257l0 225z m185 427v-67h-26c1 1 1 3 1 4v77h14c6 0 11-6 11-14z m-70 14h24v-77c0-1 0-3 1-4h-25c0 1 0 3 0 4v77z m-36 0h15v-77c0-1 0-3 1-4h-27v67c0 8 5 14 11 14z m-28-293l13 9-13 9c-33 22-52 56-52 92 0 31 35 61 66 81h127c30-20 66-50 66-81 0-36-19-70-52-92l-13-9 13-9c29-20 46-49 50-81h-255c3 32 21 61 50 81z m138-468h-122c-37 0-67 30-67 67l0 6h257l0-6c0-37-30-67-68-67z" horiz-adv-x="1000" />
<glyph glyph-name="08" unicode="&#xe806;" d="m775 412h-14c10 9 17 23 17 37 0 29-24 53-53 53-13 0-25-5-34-12 0 0 0 0 0 0 0 29-24 53-53 53-29 0-53-24-53-53 0-1 1-1 1-1-10 8-22 13-35 13-13 0-25-5-34-13 0 0 0 0 0 0 0 30-24 53-53 53-29 0-52-23-52-53 0 0 0 0 0-1-10 8-22 13-35 13-13 0-25-4-34-12 0 0 0 0 0 0 0 29-24 53-53 53-29 0-52-24-52-53 0 0 0 0 0 0-10 8-21 12-34 12-29 0-53-23-53-52 0-15 6-28 15-37h-13v-11c0-172 139-311 311-311 172 0 311 139 311 311v11z m-50 69c17 0 31-14 31-32 0-17-14-31-31-31-18 0-32 14-32 31 0 18 14 32 32 32z m-37-69h-100c10 9 16 22 16 37 0 0 0 1 0 1 9-8 21-13 34-13 13 0 25 5 34 12 0 0 0 0 0 0 0-14 6-28 16-37z m-50 109c18 0 32-14 32-31 0-18-14-32-32-32-17 0-31 14-31 32 0 17 14 31 31 31z m-87-41c17 0 31-14 31-31s-14-31-31-31c-18 0-32 14-32 31s14 31 32 31z m-37-68h-100c10 9 16 22 16 37 0 0 0 0 0 1 9-8 21-13 34-13 13 0 25 4 34 12 0 0 0 0 0 0 0-15 6-28 16-37z m-50 109c18 0 32-14 32-32 0-17-14-31-32-31-17 0-31 14-31 31 0 18 14 32 31 32z m-87-41c17 0 31-14 31-31 0-18-14-32-31-32-17 0-32 14-32 32 0 17 15 31 32 31z m-87 41c18 0 32-15 32-32 0-17-14-31-32-31-17 0-31 14-31 31 0 17 14 32 31 32z m-86-41c17 0 31-14 31-31 0-18-14-32-31-32-18 0-32 14-32 32 0 17 14 31 32 31z m53-31c9-8 20-13 33-13 13 0 25 5 34 13 0-15 6-28 16-37h-99c10 9 16 22 16 37z m207-338c-156 0-284 124-290 279h580c-6-155-134-279-290-279z m113-52h-226c-6 0-10-5-10-11 0-6 4-11 10-11h226c6 0 10 5 10 11 0 6-4 11-10 11z m-198 444c29 0 53 24 53 53 0 29-24 52-53 52-29 0-53-23-53-52 0-29 24-53 53-53z m0 84c17 0 31-14 31-31 0-18-14-32-31-32-17 0-32 14-32 32 0 17 15 31 32 31z m90-28c12 0 23 4 32 11-1-4-2-9-2-14 0-29 24-53 53-53 29 0 53 24 53 53 0 29-24 52-53 52-12 0-23-4-32-11 1 5 2 10 2 15 0 29-24 53-53 53-29 0-52-24-52-53 0-29 23-53 52-53z m83 28c17 0 31-14 31-31 0-18-14-32-31-32-17 0-31 14-31 32 0 17 14 31 31 31z m-83 57c18 0 32-15 32-32 0-17-14-31-32-31-17 0-31 14-31 31 0 17 14 32 31 32z m429-541c-4 12-12 23-24 29-18 10-38 8-54-4-8 6-18 10-29 10-28 0-51-23-51-51 0-27 23-50 51-50 11 0 21 4 30 11 2-2 4-3 6-4 7-4 15-6 23-6 5 0 10 1 15 2 13 4 23 13 30 25 6 11 7 25 3 38z m-107-44c-16 0-29 13-29 28 0 16 13 29 29 29 15 0 28-13 28-29 0-15-13-28-28-28z m85 16c-4-7-10-12-17-15-8-2-15-1-22 3-1 0-2 0-2 1 4 7 6 15 6 23 0 9-3 18-7 25 9 6 20 7 30 2 7-4 12-10 14-18 2-7 1-15-2-21z m-728 59c-28 0-51-22-51-50 0-27 23-50 51-50 27 0 50 23 50 50 0 28-23 50-50 50z m0-79c-16 0-29 13-29 29 0 16 13 29 29 29 15 0 28-13 28-29 0-16-13-29-28-29z" horiz-adv-x="1000" />
<glyph glyph-name="07" unicode="&#xe807;" d="m780 556c15 20 6 56-27 105-65 96-206 76-212 76-4-1-7-4-9-7-1-4 0-8 2-11 30-36 60-38 75-36 5-8 16-19 39-24 15-4 17-18 18-22 1-11-2-22-9-25-1-1-3-2-4-2-6 6-8 13-11 20-7 16-14 34-53 37-3 0-6-1-8-3-2-1-3-4-3-7-1-3-6-80 23-112 8-9 17-14 29-15-3-13-3-28-2-39-17-50-39-95-50-102-17 38-38 71-44 74-2 2-5 3-9 3-7 0-16-5-21-7h-13c-5 2-13 7-21 7-3 0-6-1-8-3-6-3-26-34-43-71-12 13-31 54-47 99 1 11 1 26-1 39 11 1 21 6 28 15 30 32 24 109 24 112 0 3-2 6-4 7-2 2-5 3-8 3-39-3-46-21-52-37-3-7-6-14-12-20-1 0-2 1-3 2-7 3-11 14-10 25 1 4 4 18 18 22 23 5 34 16 39 24 15-2 45 0 75 36 3 3 3 7 2 11-1 3-4 6-8 7-6 0-148 20-212-76-34-49-43-85-28-105-15-22-21-53-4-79 8-12 20-19 37-20 1-1 1-2 2-3 12-27 77-125 139-125 1 0 1 0 2 0-1-5-2-10-3-15-1-9-1-17 0-24l-57 31c-3 2-7 2-10 0l-65-31c-2-1-3-3-4-4l-24-34c-3-5-2-12 3-15 2-1 4-2 6-2 4 0 7 2 9 5l22 32 58 28 68-37c-1-3-1-7-2-11l-56 26c-3 1-6 1-9 0l-48-21c-2 0-4-2-5-3l-35-50c-3-5-2-11 3-15 1-1 4-2 6-2 3 0 6 2 8 5l34 47 41 18 60-27c0-1 0-2 0-3 0-5 0-9 0-14l-38 21c-3 1-7 1-10 0l-48-24c-2-1-3-3-5-5l-28-49c-3-5-2-12 3-15 2-1 4-1 6-1 3 0 7 2 9 5l27 47 41 20 46-24c1-6 3-12 4-18l-33 21c-3 2-7 2-11 0l-41-24c-2-1-3-3-4-4l-25-50c-2-5 0-12 5-14 2-1 3-1 5-1 4 0 8 2 9 6l24 46 32 20 49-32c1 0 1 0 2-1 1-1 1-2 2-4-6-10-8-24-6-41 5-52 41-128 49-134 5-4 18-14 36-15 1 0 1 0 2 0 21 0 39 15 40 16 8 6 42 81 47 131 1 18-1 33-7 43 1 1 2 3 2 4 1 1 2 1 3 1l48 32 33-20 23-46c2-4 6-6 10-6 1 0 3 0 4 1 6 2 8 9 5 14l-24 50c-1 1-3 3-4 4l-42 24c-3 2-7 2-11 0l-33-21c2 6 3 12 4 18l47 24 40-20 28-47c2-3 5-5 9-5 2 0 4 0 5 1 5 3 7 10 4 15l-29 49c-1 2-2 4-4 5l-49 24c-3 1-6 1-9 0l-39-21c1 5 1 9 1 14 0 1 0 2 0 3l59 27 42-18 33-47c2-3 6-5 9-5 2 0 4 1 6 2 5 4 6 10 3 15l-35 50c-2 1-3 3-5 3l-49 21c-2 1-5 1-8 0l-57-26c0 4-1 8-1 11l68 37 58-28 22-32c2-3 5-5 8-5 3 0 5 1 6 2 5 3 7 10 3 15l-23 34c-1 1-2 3-4 4l-65 31c-4 2-7 2-10 0l-58-31c2 7 2 15 1 24-1 5-2 10-3 16 2-1 4-1 6-1 63 0 127 98 140 125 0 1 0 2 1 3 17 1 30 8 38 20 17 26 11 57-5 79z m-202-329c0-27-5-53-14-75-2 0-3-1-5-2-15-14-38-22-61-22-23 0-46 8-62 22-1 1-3 2-4 3-10 21-15 47-15 74 0 9 1 19 2 28 23-14 50-22 79-22 29 0 56 7 79 21 1-9 1-18 1-27z m-106 217c3-1 7-3 11-5 1-1 3-2 5-2h19c2 0 4 1 6 2 3 2 8 4 10 5 17-22 79-136 53-162-1-1-2-2-2-4-20-15-48-24-76-24-29 0-56 9-76 25-1 1-2 2-3 3-26 26 37 140 53 162z m-71-93l-2 0c-53-7-121 98-126 115 0 2 0 4-1 6-2 4-6 7-10 6-19 0-25 6-29 11-13 20-5 45 9 60 2 2 3 5 3 8 0 3-2 6-4 8-14 10-5 41 24 84 43 64 128 69 169 68-25-19-44-12-45-12-3 1-6 1-9 0-3-2-5-5-5-8-1-1-5-12-28-18-18-4-31-19-34-40-2-19 6-38 20-46 3-2 5-3 7-5 3-4 10-4 14-1 15 12 20 25 24 35 5 12 8 19 24 22 1-24-2-67-18-85-5-6-11-8-17-8-4-1-8-1-12-1 0 0 0 0 0 0-5 0-9-2-10-7-2-4-1-9 3-11 3-4 4-24 3-42-1-1 0-3 0-4 8-23 35-96 59-115-3-7-6-15-9-22l0 2z m123-377c-5-3-16-10-26-10l-1 0c-11 1-19 7-23 10-10 15-57 120-38 150 18-11 40-17 62-17 23 0 44 6 61 17 19-31-25-134-35-150z m243 515c-4-5-10-11-28-11-5 1-9-2-11-6 0-2-1-4 0-6-6-17-74-121-126-115l-3 0c-2 0-3 0-5-1-2 6-5 13-7 19 25 14 54 92 62 117 1 1 1 3 1 4-2 18-1 38 2 42 4 2 5 7 4 11-2 5-6 7-10 7 0 0 0 0 0 0-4 0-8 0-12 1-7 0-12 2-17 8-16 18-19 61-19 85 16-3 19-10 24-22 4-10 10-23 24-35 5-3 11-3 15 1 1 2 3 3 6 5 15 8 23 27 20 46-3 21-16 36-34 40-23 6-27 17-27 18-1 3-3 6-5 8-3 1-7 1-10 0 0 0-20-7-45 12 41 1 126-4 169-68 29-43 38-74 25-84-3-2-4-5-5-8 0-3 1-6 3-8 14-15 22-40 9-60z m-296-107c9 0 16 7 16 16 0 9-7 16-16 16-9 0-16-7-16-16 0-9 7-16 16-16z m53 0c9 0 16 7 16 16 0 9-7 16-16 16-9 0-16-7-16-16 0-9 7-16 16-16z" horiz-adv-x="1000" />
<glyph glyph-name="09" unicode="&#xe808;" d="m879 481c-3 9-7 17-11 25-1 3-2 6-5 8-30 49-81 85-151 105-57 16-108 16-117 16-132 27-242-3-312-34-34-15-62-31-82-44-1 1-3 2-4 2-2 0-43 11-94-16-5-3-7-9-4-15 2-3 6-5 9-5 2 0 4 0 5 1 27 14 50 16 65 16-10-7-15-12-16-13-2-1-3-4-3-7 0-3 1-6 3-8 12-11 25-22 39-31-21-6-46-12-74-15-6 0-10-5-9-11 0-6 5-10 10-10 0 0 1 0 1 0 38 3 71 13 96 22 53-29 119-45 195-47 8 0 15 0 23 0 0-8 3-21 13-33 17-23 49-37 94-41 1 0 1 0 2 0 5 0 10 4 10 9 0 3 0 5-1 7 16-7 35-12 58-14 0 0 0 0 1 0 5 0 10 4 10 9 0 1 0 1 0 2 18-12 44-20 75-23 1 0 1 0 2 0 5 0 10 4 10 9 1 6-4 11-9 12-39 4-66 15-80 32-11 14-9 28-9 28 0 1 0 2 0 2 11 0 20 1 26 2 16-22 32-23 47-24 13-1 25-1 43-17 29-25-5-104-22-135-18-3-81-13-116-18-47-5-74-38-73-66 0-11 5-21 14-29 8-7 19-13 31-15-16-19-22-43-12-61 6-9 14-15 26-18 4-1 9-2 14-2 14 0 30 5 44 13 1 1 2 2 2 3 2 0 3 0 5 1 10 6 103 91 131 117 1 1 40 38 73 95 43 76 53 151 27 216z m-14-130c-1 0-2-1-2-1-2-3-40-60-95-24-1 1-1 1-2 1 3 22 2 42-8 58 54 9 85 61 100 93 0-2 1-3 1-4 17-42 15-84 6-123z m-614 126c9 4 14 7 15 7 5 3 7 10 4 15-2 5-9 7-14 4 0 0-11-6-30-13-14 8-28 18-40 29 16 13 53 40 106 63 64 28 163 56 282 35 8-10 58-86-21-163-36-8-183-33-302 23z m360-100c2-3 4-5 6-8-36 5-62 16-76 32-9 12-9 23-9 27 13 2 23 4 29 5 10-7 24-11 37-12 0 0 0 0 0 0 0-1-4-23 13-44z m-138 22c-6 9-9 17-9 22 17 1 33 2 47 4 0-8 2-22 13-36 7-9 15-16 25-22-36 5-63 16-76 32z m104 49c61 68 39 135 24 166 18-1 72-3 127-23-1-28-12-132-75-147-1 0-2 0-3-1 0 0-1 0-2 0-13-2-50-5-71 5z m91-21c64 24 78 118 81 156 37-17 73-42 96-80-8-21-40-98-102-98-1 0-1 0-2 0-1 0-2 0-3 0-18 12-33 13-45 13-10 1-17 2-25 9z m96-242c-44-41-118-108-126-113-2-1-3-2-3-3-2 0-4-1-6-1-13-9-29-13-41-10-6 2-10 5-12 9-8 13 4 36 26 50 4 2 6 8 4 12-1 5-5 7-10 7 0 0-1 0-1 0l-1 0c-1 0-1 0-2 0-16-1-30 3-39 12-4 3-7 8-8 14 0 15 17 40 55 44 41 6 121 18 122 19 3 0 6 2 7 5 4 6 22 39 32 75 14-8 29-12 43-12 5 0 10 0 15 1 11 3 21 7 30 13-31-71-84-121-85-122z m-452 368c-9 3-18-2-21-12-3-9 1-18 10-21 9-3 19 2 22 11 2 9-2 19-11 22z" horiz-adv-x="1000" />
<glyph glyph-name="10" unicode="&#xe809;" d="m236 669c-11 0-21-2-31-6-49-17-75-71-57-120 20-57 31-125 31-194 0-70-11-137-31-195-9-23-8-49 3-71 11-23 30-40 54-49 10-3 20-5 31-5 40 0 75 25 89 62 27 78 42 167 42 258 0 91-15 180-42 257-14 38-49 63-89 63z m71-565l-33 32c-4 4-10 4-15 0-4-4-4-11 0-15l38-37c-13-21-36-34-61-34-8 0-16 2-24 4-19 7-33 20-42 38-8 17-9 37-2 55 21 60 32 130 32 202 0 72-11 142-32 202-14 37 6 79 44 92 8 3 16 5 24 5 31 0 58-20 69-49 5-15 10-30 14-46l-30 30c-4 4-11 4-15 0-5-4-5-11 0-15l50-51c1-1 3-2 4-2 7-33 12-67 15-102l-48 49c-4 4-11 4-15 0-4-5-4-11 0-15l61-62c1-1 2-2 4-2 0-11 1-23 1-34 0-17-1-35-2-52l-46 47c-5 4-11 4-16 0-4-4-4-11 0-15l60-60c-3-25-6-50-11-74l-45 45c-4 4-11 4-15 0-4-4-4-11 0-15l55-55c-6-22-12-44-19-66z m-159 547c2 0 4 1 6 2l36 27c4 4 5 10 2 15-4 5-10 6-15 2l-36-27c-4-3-5-10-2-14 2-3 6-5 9-5z m42-633l-36 27c-5 3-11 2-15-2-3-5-2-12 2-15l36-27c2-1 4-2 6-2 3 0 7 1 9 4 3 5 2 12-2 15z m298 651c-11 0-21-2-32-6-48-17-74-71-57-120 21-57 32-125 32-194 0-70-11-137-32-195-8-23-7-49 4-71 11-23 30-40 53-49 11-3 21-5 32-5 39 0 75 25 88 62 28 78 43 167 43 258 0 91-15 180-43 257-13 38-49 63-88 63z m70-565l-32 32c-4 4-11 4-15 0-4-4-4-11 0-15l38-37c-13-21-36-34-61-34-8 0-17 2-25 4-18 7-32 20-41 38-8 17-9 37-3 55 22 60 33 130 33 202 0 72-11 142-33 202-13 37 7 79 44 92 8 3 17 5 25 5 30 0 58-20 68-49 6-15 11-30 15-46l-31 30c-4 4-10 4-15 0-4-4-4-11 0-15l51-51c1-1 3-2 4-2 7-33 12-67 15-102l-48 49c-5 4-11 4-15 0-5-5-5-11 0-15l61-62c1-1 2-2 4-2 0-11 0-23 0-34 0-17 0-35-1-52l-47 47c-4 4-11 4-15 0-4-4-4-11 0-15l59-60c-2-25-6-50-10-74l-45 45c-4 4-11 4-15 0-4-4-4-11 0-15l54-55c-5-22-11-44-19-66z m-159 547c3 0 5 1 7 2l35 27c5 4 6 10 2 15-3 5-10 6-14 2l-36-27c-5-3-6-10-2-14 2-3 5-5 8-5z m42-633l-35 27c-5 3-11 2-15-2-4-5-3-12 2-15l36-27c1-1 4-2 6-2 3 0 6 1 8 4 4 5 3 12-2 15z m387 588c-13 38-49 63-88 63-11 0-22-2-32-6-49-17-74-71-57-120 21-57 31-125 31-194 0-70-10-137-31-195-8-23-7-49 4-71 10-23 29-40 53-49 10-3 21-5 32-5 39 0 75 25 88 62 28 78 42 167 42 258 0 91-14 180-42 257z m-18-502l-32 32c-4 4-11 4-15 0-4-4-4-11 0-15l38-37c-14-21-36-34-61-34-9 0-17 2-25 4-18 7-33 20-41 38-8 17-9 37-3 55 21 60 33 130 33 202 0 72-12 142-33 202-13 37 6 79 44 92 8 3 16 5 25 5 30 0 58-20 68-49 5-15 10-30 15-46l-31 30c-4 4-11 4-15 0-4-4-4-11 0-15l51-51c1-1 2-2 4-2 7-33 12-67 15-102l-49 49c-4 4-11 4-15 0-4-5-4-11 0-15l61-62c2-1 3-2 4-2 1-11 1-23 1-34 0-17-1-35-2-52l-46 47c-4 4-11 4-15 0-4-4-4-11 0-15l59-60c-2-25-6-50-11-74l-45 45c-4 4-10 4-15 0-4-4-4-11 0-15l55-55c-5-22-12-44-19-66z m-159 547c2 0 5 1 7 2l35 27c5 4 6 10 2 15-3 5-10 6-15 2l-35-27c-5-3-6-10-2-14 2-3 5-5 8-5z m42-633l-35 27c-5 3-12 2-15-2-4-5-3-12 2-15l35-27c2-1 4-2 7-2 3 0 6 1 8 4 4 5 3 12-2 15z" horiz-adv-x="1000" />
<glyph glyph-name="11" unicode="&#xe80a;" d="m504 631c-158 0-286-129-286-287 0-158 128-287 286-287 159 0 287 129 287 287 0 158-128 287-287 287z m0-552c-146 0-265 119-265 265 0 147 119 266 265 266 147 0 266-119 266-266 0-146-119-265-266-265z m0 449c-101 0-184-82-184-184 0-101 83-184 184-184 102 0 185 83 185 184 0 102-83 184-185 184z m0-347c-89 0-162 73-162 163 0 90 73 163 162 163 90 0 163-73 163-163 0-90-73-163-163-163z m-312 62c-4 52-10 161-9 174 1 10 11 19 19 25 11 6 20 23 21 35 0 8-2 34-2 37l-1 10h-1l-6 142c0 5-5 10-11 10-6 0-10-5-10-11l5-141h-15v141c0 6-5 11-11 11-5 0-10-5-10-11v-141h-13v141c0 6-5 11-11 11-6 0-10-5-10-11v-141h-16l6 141c0 6-5 11-10 11-6 0-11-5-12-10l-5-142h0l-1-10c0-3-3-29-2-37 0-12 10-29 20-35 9-6 18-15 19-25 2-13-5-122-8-174-2-23-11-101-16-148-4-33-4-33-4-34 0-26 25-46 57-46 31 0 57 20 57 46 0 1 0 2-4 35-5 47-15 124-16 147z m-37-207c-19 0-36 11-36 24 0 3 2 17 4 33 5 46 14 125 16 149 2 24 10 159 9 177-2 21-21 35-29 40-5 4-11 14-11 18 0 4 1 16 1 26h91c1-10 2-22 2-26-1-4-6-14-11-18-8-5-27-19-29-40-2-18 7-153 9-177 1-24 10-102 16-148 2-17 3-31 4-34-1-13-17-24-36-24z m748 206l-4 61c0 1 0 3-1 4 1 1 1 3 1 5 0 1 0 5 0 11 2 304-1 318-2 322l0 1c-3 13-8 39-27 39-36 0-64-80-64-152 0-3 0-6 0-10l0-168c0-17 1-33 12-49 5-7 11-13 19-17l-2-27c-9-171-11-200-11-201 0-26 20-46 44-46 25 0 45 20 45 46 0 1-2 28-10 181z m-76 113v167c0 4 1 8 1 11 0 70 26 127 41 130 1-1 4-7 7-21l0-1c1-5 3-46 2-318 0-6 0-10 0-11 0-2-1-4-2-5-3-2-6-2-10-2h-7c-9 0-18 5-24 13-7 10-8 20-8 37z m41-319c-12 0-23 11-23 24 1 4 7 127 12 201l1 23c0 0 1-1 1-1h7c4 0 9 1 13 2l2-45c4-70 10-176 10-179 0-14-10-25-23-25z" horiz-adv-x="1000" />
<glyph glyph-name="12" unicode="&#xe80b;" d="m823 402c-37 0-66-30-66-66v-11h-37v22c0 27-22 50-48 53v227c0 49-40 89-89 89h-355c-48 0-88-40-88-89v-555c0-49 40-89 88-89h355c49 0 89 40 89 89v160c26 2 48 25 48 53v19h37c1-35 30-64 66-64h37v162h-37z m-240-398h-355c-37 0-67 30-67 68v555c0 37 30 67 67 67h355c37 0 67-30 67-67v-226h-35v239h-411v-603h411v194h35v-159c0-38-30-68-67-68z m-3 397c-8 67-36 128-85 181l-3 3-4 0c-7 1-8-2-20-17-6-8-16-22-26-39-7-12-16-28-24-46-14 36-36 69-64 99l-8 8-8-8c-2-3-66-76-88-181h-25v218h369v-218h-14z m-279-22c18 0 32-15 32-32v-62c0-18-14-32-32-32-17 0-32 14-32 32 0 0 0 0 0 0 0 1 1 2 1 3 0 16 13 29 29 29 6 0 11 5 11 11 0 6-5 11-11 11-28 0-51-23-51-51 0 0 0 0 0 0 0-1 0-2 0-3 0-30 24-54 53-54 1 0 2 1 3 1 1-1 3-1 4-1h286v-172h-369v320h72c1 0 3 0 4 0z m-29 22c17 77 58 135 75 157 27-31 47-66 59-104-6-16-11-34-15-53h-119z m215 157c41-46 65-99 72-157h-146c17 76 57 135 74 157z m211-273c0-18-14-32-32-32-2 0-3-1-5-2-1 1-2 1-4 1h-314c7 9 11 20 11 33v62c0 12-4 23-11 32h319c1 0 3 0 4 0 18 0 32-15 32-32v-62z m140-24h-15c-25 0-45 20-45 45v30c0 25 20 45 45 45h15v-120z m-496 257c-6 0-11-5-11-11v-27c0-5 5-10 11-10 6 0 11 5 11 10v27c0 6-5 11-11 11z m145-6c-6 0-10-4-10-10v-27c0-6 4-10 10-10 6 0 11 4 11 10v27c0 6-5 10-11 10z" horiz-adv-x="1000" />
<glyph glyph-name="13" unicode="&#xe80c;" d="m407 530c-27 0-49-21-49-48 0-27 22-49 49-49 27 0 48 22 48 49 0 27-21 48-48 48z m0-75c-15 0-27 12-27 27 0 15 12 27 27 27 15 0 27-12 27-27 0-15-12-27-27-27z m405-168c0 0 0 0 0 0 0 0 0 0 0 0 0 44-1 90-5 135 0 1 0 2 0 4 0 2 0 3-1 5-5 44-13 87-27 124-34 89-97 134-187 135-1 0-1 0-1 0h-169c0 0-1 0-1 0-3 0-6 0-9 0-92 0-156-45-190-135-30-77-34-179-34-268 0-107 34-210 92-273 3-4 8-5 12-3 4 3 7 7 6 12-5 28-7 57-7 87 0 167 20 264 121 264 100 0 120-97 120-264 0-30-2-59-7-87-1-5 2-9 6-12 1 0 3-1 5-1 0 0 1 1 2 1 1 0 2-1 2-1h169c1 0 1 1 2 1 1-1 1-1 2-1 3 0 6 2 8 4 57 63 91 165 91 273 0 0 0 0 0 0z m-400 109c-131 0-142-141-142-286 0-17 0-35 2-52-40 60-63 143-63 229 0 87 4 186 33 260 31 82 86 122 170 122 83 0 139-40 170-122 28-74 32-173 32-260 0-86-23-169-63-229 2 17 2 35 2 52 0 145-11 286-141 286z m296-364h-150c49 64 77 157 77 255 0 89-4 191-34 268-20 54-52 92-94 114h82c41 0 75-10 103-30h-72c-6 0-11-4-11-10 0-6 5-11 11-11h97c12-13 22-28 31-46h-88c-6 0-11-5-11-11 0-6 5-11 11-11h98c0-1 0-2 1-3 5-13 9-28 13-43h-93c-6 0-11-5-11-11 0-6 5-10 11-10h98c3-15 5-31 7-47h-91c-6 0-11-5-11-10 0-6 5-11 11-11h93c2-16 3-33 3-49h-84c-6 0-11-5-11-11 0-6 5-11 11-11h85c1-15 1-31 1-46h-84c-6 0-11-5-11-11 0-6 5-10 11-10h84c-1-16-2-32-3-47h-93c-6 0-10-5-10-10 0-6 4-11 10-11h90c-3-16-6-32-11-47h-95c-6 0-11-4-11-10 0-6 5-11 11-11h89c-5-16-12-32-19-46h-98c-6 0-11-5-11-11 0-6 5-10 11-10h87c-9-16-19-30-30-42z" horiz-adv-x="1000" />
<glyph glyph-name="14" unicode="&#xe80d;" d="m901 706l3 7-12 11-6-3c-2 0-179-77-342-4l-15 7 1-179c-14-12-29-24-43-39-60-60-109-140-124-206-4 0-8-1-15-2-26-5-75-14-119-10-6 0-11-4-12-10 0-6 4-11 10-11 7-1 15-1 23-1 41 0 81 7 102 11 3 1 5 1 7 1 0-6-1-13 0-19-27-13-146-68-219-50-6 1-11-2-13-8-1-5 2-11 8-13 12-3 24-4 37-4 72 0 158 38 189 53 2-4 3-8 5-12-23-20-130-114-263-202-5-4-7-10-3-15 2-3 5-5 9-5 2 0 4 1 6 2 129 86 235 177 262 202 1-1 2-2 3-3 1-1 2-3 4-4-18-22-80-102-127-210-3-5 0-11 5-14 1 0 3-1 4-1 4 0 8 3 10 7 48 109 112 190 126 207 5-1 10-3 16-4-16-30-64-130-50-194 1-5 6-8 11-8 0 0 1 0 2 0 6 1 9 7 8 13-14 65 47 179 52 188 6 0 12 0 18 1 0-1 0-3-1-4-4-25-14-78-10-125 0-6 5-10 10-10 1 0 1 0 1 0 6 0 11 5 10 11-4 45 5 94 10 120 1 5 2 9 2 13 64 16 142 63 204 125 13 12 23 24 33 36 1 0 2 0 3 0l183-2-7 15c-73 164 3 340 4 342z m-231-376c-72-72-170-125-233-125-19 0-33 5-42 14-43 42 10 175 107 272 58 58 121 91 172 91 24 0 45-8 61-23 50-51 26-138-65-229z m64 42c67 92 55 163 16 202-20 19-46 30-76 30-38 0-80-16-123-44l-1 132c136-54 272-16 323 2-18-51-56-188-2-323l-137 1z m-318-66c-7-8-7-20 0-27 8-7 20-7 27 0 7 7 7 19 0 27-7 7-19 7-27 0z m44-44c-7-8-7-19 0-27 8-7 19-7 27 0 7 8 7 19 0 27-8 7-19 7-27 0z" horiz-adv-x="1000" />
<glyph glyph-name="15" unicode="&#xe80e;" d="m357 704c-69 0-125-56-125-125 0-69 56-125 125-125 69 0 125 56 125 125 0 69-56 125-125 125z m0-228c-57 0-104 46-104 103 0 57 47 104 104 104 57 0 103-47 103-104 0-57-46-103-103-103z m0 160c-32 0-57-25-57-57 0-31 25-57 57-57 31 0 57 26 57 57 0 32-26 57-57 57z m0-93c-20 0-36 17-36 36 0 20 16 36 36 36 20 0 36-16 36-36 0-19-16-36-36-36z m274 161c-68 0-124-56-124-125 0-69 56-125 124-125 69 0 125 56 125 125 0 69-56 125-125 125z m0-228c-57 0-103 46-103 103 0 57 46 104 103 104 57 0 104-47 104-104 0-57-47-103-104-103z m0 160c-31 0-57-25-57-57 0-31 26-57 57-57 32 0 57 26 57 57 0 32-25 57-57 57z m0-93c-19 0-35 17-35 36 0 20 16 36 35 36 20 0 36-16 36-36 0-19-16-36-36-36z m-274-110c-69 0-125-56-125-125 0-69 56-125 125-125 69 0 125 56 125 125 0 69-56 125-125 125z m0-229c-57 0-104 47-104 104 0 57 47 103 104 103 57 0 103-46 103-103 0-57-46-104-103-104z m0 161c-32 0-57-26-57-57 0-32 25-57 57-57 31 0 57 25 57 57 0 31-26 57-57 57z m0-93c-20 0-36 16-36 36s16 36 36 36c20 0 36-16 36-36s-16-36-36-36z m274 161c-68 0-124-56-124-125 0-69 56-125 124-125 69 0 125 56 125 125 0 69-56 125-125 125z m0-229c-57 0-103 47-103 104 0 57 46 103 103 103 57 0 104-46 104-103 0-57-47-104-104-104z m0 161c-31 0-57-26-57-57 0-32 26-57 57-57 32 0 57 25 57 57 0 31-25 57-57 57z m0-93c-19 0-35 16-35 36s16 36 35 36c20 0 36-16 36-36s-16-36-36-36z m-491 454h719c6 0 10 5 10 10 0 6-4 11-10 11h-719c-6 0-11-5-11-11 0-5 5-10 11-10z m719-36h-61c-6 0-11-5-11-11 0-6 5-11 11-11h61c6 0 10 5 10 11 0 6-4 11-10 11z m0-58h-61c-6 0-11-5-11-10 0-6 5-11 11-11h61c6 0 10 5 10 11 0 5-4 10-10 10z m0-57h-61c-6 0-11-5-11-11 0-6 5-11 11-11h61c6 0 10 5 10 11 0 6-4 11-10 11z m0-58h-61c-6 0-11-5-11-10 0-6 5-11 11-11h61c6 0 10 5 10 11 0 5-4 10-10 10z m0-57h-61c-6 0-11-5-11-11 0-6 5-11 11-11h61c6 0 10 5 10 11 0 6-4 11-10 11z m0-58h-61c-6 0-11-4-11-10 0-6 5-11 11-11h61c6 0 10 5 10 11 0 6-4 10-10 10z m0-57h-61c-6 0-11-5-11-11 0-6 5-10 11-10h61c6 0 10 4 10 10 0 6-4 11-10 11z m0-58h-61c-6 0-11-4-11-10 0-6 5-11 11-11h61c6 0 10 5 10 11 0 6-4 10-10 10z m0-57h-61c-6 0-11-5-11-11 0-6 5-10 11-10h61c6 0 10 4 10 10 0 6-4 11-10 11z m-719 438h63c6 0 10 5 10 11 0 6-4 11-10 11h-63c-6 0-11-5-11-11 0-6 5-11 11-11z m0-57h63c6 0 10 5 10 11 0 5-4 10-10 10h-63c-6 0-11-5-11-10 0-6 5-11 11-11z m0-58h63c6 0 10 5 10 11 0 6-4 11-10 11h-63c-6 0-11-5-11-11 0-6 5-11 11-11z m0-57h63c6 0 10 5 10 11 0 5-4 10-10 10h-63c-6 0-11-5-11-10 0-6 5-11 11-11z m0-58h63c6 0 10 5 10 11 0 6-4 11-10 11h-63c-6 0-11-5-11-11 0-6 5-11 11-11z m0-57h63c6 0 10 5 10 11 0 6-4 10-10 10h-63c-6 0-11-4-11-10 0-6 5-11 11-11z m0-57h63c6 0 10 4 10 10 0 6-4 11-10 11h-63c-6 0-11-5-11-11 0-6 5-10 11-10z m0-58h63c6 0 10 5 10 11 0 6-4 10-10 10h-63c-6 0-11-4-11-10 0-6 5-11 11-11z m0-57h63c6 0 10 4 10 10 0 6-4 11-10 11h-63c-6 0-11-5-11-11 0-6 5-10 11-10z m729-47c0 6-4 10-10 10h-719c-6 0-11-4-11-10 0-6 5-11 11-11h719c6 0 10 5 10 11z m1-119c-1 6-7 10-12 9l-167-21-460 82c-6 1-11-2-12-8-1-6 2-12 8-13l393-70-378-48c-6-1-10-6-10-12 1-5 6-9 11-9 0 0 1 0 1 0l447 57 147-27c1 0 2 0 2 0 5 0 10 4 11 9 1 5-3 11-9 12l-81 15 99 12c6 1 10 6 10 12z" horiz-adv-x="1000" />
<glyph glyph-name="16" unicode="&#xe80f;" d="m822 563l23 173c1 6-3 11-9 12-6 1-11-3-12-9l-23-176h-257l27-252 5-38 34-323h222l66 613h-76z m52-21l-11-104h-57l14 104h54z m-76 0l-14-104h-205l-11 104h230z m-201-266l-5 37-11 104h201l-47-348c0-6 4-11 10-12 0 0 1 0 1 0 5 0 10 4 11 9l46 351h58l-41-382h-198l-25 241z m32-305l-5 43h194l-5-43h-184z m14 371c10 0 18 8 18 17 0 10-8 17-18 17-9 0-17-7-17-17 0-9 8-17 17-17z m72-77c9 0 17 8 17 18 0 9-8 17-17 17-10 0-18-8-18-17 0-10 8-18 18-18z m-82-55c9 0 17 7 17 17 0 9-8 17-17 17-10 0-17-8-17-17 0-10 7-17 17-17z m71-77c10 0 17 8 17 18 0 9-7 17-17 17-10 0-17-8-17-17 0-10 7-18 17-18z m-169 252l-41 13c-6 2-13 2-18-1-6-3-10-8-12-14l-15-48 13 101c2 13-7 25-19 26l-44 6c-13 2-24-7-26-20l-9-68c-4 10-14 16-24 15l-44-4c-7-1-13-5-17-11l6 53c2 12-7 24-20 26l-43 5c-6 1-12-1-17-5-5-3-8-9-9-15l-5-44c-5 9-15 14-25 12l-43-9c-13-3-21-15-18-28l21-101h-12l8-49 50-243 5-32h282l61 312 30 94c4 12-3 25-15 29z m-141 61c0 1 1 1 2 1l44-6c1 0 1-1 1-2l-22-165h-13l-2-9c-3-18-11-33-23-46l-7 75c0 1 0 2 0 3l20 149z m-96-77l44 5c1 0 2-1 2-2l18-168c-13-8-28-12-44-12-1 0-2 0-3 0l-18 175c-1 1 0 2 1 2z m-22-11l17-162c-13 4-25 10-35 20l18 142z m-59 83c0 1 1 1 1 2 0 0 1 0 1 0l44-5c1-1 1-2 1-3l-24-195c-4 8-7 16-8 25l-2 9h-34l21 167z m-91-61c-1 1 0 2 1 2l43 9c1 0 2 0 2-2l11-50-8-65h-27l-22 106z m315-409h-246l-2 15-50 243-4 24h74c4-18 12-33 24-46 1-3 3-5 6-6 20-19 46-30 75-30 50 0 93 34 105 82h74l-56-282z m89 391l-28-88h-50l33 103c0 1 0 1 1 1 0 0 0 0 1 0l42-13c1-1 1-2 1-3z" horiz-adv-x="1000" />
<glyph glyph-name="17" unicode="&#xe810;" d="m740-33l-1 1v532c42 82 81 181 22 215-53 30-143-17-216-104-3 5-5 8-6 11 43 44 56 92 57 94l3 12-12 2c-29 4-68-15-85-24-27 29-63 39-65 39l-9 2-3-8c-1-2-20-43 32-109-5-5-11-13-19-24l-5 36 0 0c-1 1-1 2-2 3l-62 68-6 43-148-22 6-44-39-82c-1-1-1-2-1-3l-1 0 15-105c0 0 0 0 1-1v-556h110 333 100v10c3 4 4 10 1 14z m-60 80l-41-56v500h79v-495l-38 51z m35-83h-69l34 47 35-47z m-98 689l24-51c2-4 6-7 10-7 2 0 3 1 5 1 5 3 7 9 5 15l-26 55c46 33 90 45 115 30 33-19 24-79-28-183h-83-136c2 3 4 6 6 9 16 29 35 55 54 78l25-54c2-4 6-6 10-6 1 0 3 0 4 1 6 2 8 8 6 14l-30 62c13 13 26 25 39 36z m-167-68c14 23 28 37 29 37l7 7-7 8c-34 40-38 70-37 84 13-5 35-16 50-35l6-7 8 5c11 6 41 22 65 25-8-18-23-49-53-77l-7-6 5-8c0 0 7-10 14-25-14-19-28-39-40-60-4-7-7-14-11-20h-27l-9 62c3 4 6 8 7 10z m-235-72l-11 74 211 31 16-105h-125-91z m130 218l2-14-106-16-2 15 106 15z m-106-52l117 17 52-58-202-29 33 70z m-22-715v527h89 312v-527h-312-89z m316 476c-22 0-39-18-39-40 0-18 12-34 30-38v-83c0-58-48-105-106-105-58 0-105 47-105 105v82c0 0 1 0 1 0 22 0 40 17 40 39 0 22-18 40-40 40-22 0-39-18-39-40 0-13 6-25 17-33 0 0 0-1 0-2v-86c0-70 57-126 126-126 70 0 127 56 127 126v83c16 5 28 21 28 38 0 22-18 40-40 40z m-219-21c10 0 19-9 19-19 0-10-9-18-19-18-10 0-18 8-18 18 0 10 8 19 18 19z m219-37c-10 0-18 8-18 18 0 10 8 19 18 19 10 0 19-9 19-19 0-10-9-18-19-18z" horiz-adv-x="1000" />
<glyph glyph-name="18" unicode="&#xe811;" d="m784 389l-334-116 116 334-11 4c-30 8-62 13-93 13-91 0-176-36-240-100-133-132-133-347 0-479 64-65 149-100 240-100 90 0 175 35 239 100 88 87 121 215 87 333l-4 11z m-303 38c-14-4-30 0-40 11-16 16-16 42 0 58 8 7 18 12 29 12h0c11 0 21-5 29-12 1-2 3-3 5-3l-23-66z m30 86c-11 10-26 16-41 16 0 0 0 0 0 0-17 0-32-7-44-18-12-12-18-28-18-44 0-17 6-33 18-44 12-12 28-19 44-19 1 0 2 0 3 1l-58-167 305 106c20-88-7-182-71-247-103-103-271-103-375 0-23 23-41 50-54 79l48 1-7 30 32 1c6 0 10 5 10 11 0 6-5 11-11 10l-57-2 7-30-30 0c-33 93-12 201 62 275 1 1 2 2 3 3 2-3 5-6 9-6l32 0-6-31 61 0c0 0 0 0 0 0 6 0 11 5 11 11 0 6-5 11-11 11l-36 0 6 30-48 0c63 51 147 71 226 53l-10-30z m175-453c-60-60-140-94-224-94-85 0-165 34-225 94-124 124-124 325 0 449 60 60 140 93 225 93 26 0 51-3 77-9l-11-30c-96 23-199-6-269-76-111-112-111-293 0-405 56-56 129-84 203-84 73 0 146 28 202 84 70 70 99 173 76 269l30 11c27-109-5-223-84-302z m-80 56c16 0 32 7 44 19 24 24 24 63 0 88-12 11-28 18-44 18-17 0-33-7-44-18-25-25-25-64 0-88 11-12 27-19 44-19z m-29 92c7 7 18 12 29 12 11 0 21-5 29-12 16-16 16-42 0-58-8-8-18-12-29-12-11 0-22 4-29 12-16 16-16 42 0 58z m-222-16c-24-25-24-64 0-89 12-11 28-18 44-18 17 0 32 7 44 18 12 12 18 28 18 45 0 16-6 32-18 44-12 11-27 18-44 18-16 0-32-7-44-18z m85-44c0-11-4-22-12-29-8-8-18-12-29-12-11 0-21 4-29 12-16 16-16 42 0 57 8 8 18 12 29 12 11 0 21-4 29-12 8-7 12-18 12-28z m-73 197c0 16-7 32-19 44-11 11-27 18-44 18-16 0-32-7-44-18-11-12-18-28-18-44 0-17 7-33 18-44 12-12 28-19 44-19 17 0 33 7 44 19 12 11 19 27 19 44z m-34-29c-7-8-18-12-29-12-11 0-21 4-29 12-7 7-12 18-12 29 0 11 5 21 12 29 8 7 19 12 29 12 11 0 22-5 29-12 8-8 12-18 12-29 0-11-4-22-12-29z m145-271c1 0 1-1 1-1 6 0 10 5 11 10l4 36 29-9 6 57c1 5-3 11-9 11-6 1-11-3-12-9l-3-31-30 8-6-61c-1-6 3-11 9-11z m228 444c16 0 32 6 44 18 24 24 24 64 0 88-12 12-28 18-44 18-17 0-33-6-44-18-25-24-25-64 0-88 11-12 27-18 44-18z m-29 91c7 8 18 12 29 12s21-4 29-12c16-16 16-42 0-58-8-8-18-12-29-12s-22 4-29 12c-16 16-16 42 0 58z m-58-172c1-18 16-33 35-33 19 0 34 15 34 34v23l221 77-2 10c-16 55-46 105-86 146-41 41-92 70-146 86l-10 3-131-375 85 29z m59 320c48-16 92-42 128-78 35-36 62-79 77-127l-30-11c-13 44-38 83-70 116-32 32-72 56-115 70l10 30z m90-115c30-30 53-67 65-108l-166-57v-39c0-7-6-13-13-13-7 0-13 6-13 13v29l-72-25 92 265c40-13 77-35 107-65z" horiz-adv-x="1000" />
<glyph glyph-name="19" unicode="&#xe812;" d="m249 99c0 0 1-1 2-1l176 0c0 0 0 0 0 0 0 0 0 0 0 0l55-39c2-1 4-2 6-2 2 0 5 1 6 2l55 39c1 0 1 0 1 0 0 0 0 0 0 0l182 0c1 0 1 1 2 1 28 6 47 28 47 52 0 25-19 47-47 53 0 0-1 0-2 0l-58 1c-1 1-2 1-4 1 0 0 0 0 0 0l-44 0-2 0c0 0 0 0 0 0l-263 0c-1 0-2 0-2 0 0 0 0 0 0 0l-13 0-40 0c-1 0-2-1-3-1l-52-1c-1 0-2 0-2 0-28-6-48-28-48-53 0-24 20-46 48-52z m239-18l-148 103 6 0 280 1 10-1-148-103z m272 70c0-14-12-27-29-31l-151-1 93 65 58-1c17-4 29-17 29-32z m-508 32l52 1 93-65-145 1c-17 4-29 17-29 31 0 15 12 28 29 32z m547 137c0 0 0 0 0 0 0 0 0 0 0 0l0 38 0 0 0 10c0 164-133 298-297 298-164-1-297-134-297-298l0-11h0l0-43c0-2 0-3 1-4 2-17 10-32 24-44 15-13 36-21 57-21 0 0 0 0 0 0 31 0 59 16 72 39 4-7 9-13 15-18 16-13 36-21 58-21 0 0 0 0 0 0 31 0 58 16 72 39 13-23 41-39 72-39 0 0 0 0 0 0 30 0 57 15 71 37 4-5 8-10 13-14 15-14 36-21 57-21 0 0 0 0 0 0 40 0 73 26 80 59 1 2 2 4 2 6l0 8z m-297 324c148 0 270-118 276-265l-551 0c5 147 126 265 275 265z m215-376c0 0 0 0 0 0-16 0-32 6-43 16-9 8-15 18-17 29 0 2 1 3 1 5 0 2-1 4-2 5-1 4-5 7-10 7 0 0 0 0 0 0-6 0-10-5-10-10 0-3 0-5 0-8-3-25-29-45-60-45 0 0 0 0 0 0-33 0-60 23-60 51 0 6-5 11-11 11 0 0 0 0 0 0 0 0-1-1-1-1-1 0-1 1-1 1 0 0 0 0 0 0-6 0-11-5-11-11 0-28-27-51-60-51 0 0 0 0 0 0-17 0-32 5-44 15-11 10-17 22-17 36 0 6-5 10-10 10 0 0 0 0 0 0-1 0-1 0-2 0 0 0 0 0-1 0 0 0 0 0 0 0-6 0-11-4-11-10 0-29-27-52-60-52 0 0 0 0 0 0-16 0-32 6-43 16-11 10-17 22-17 36 0 1 0 2-1 3l0 36 551 1 0-38c0-29-27-52-60-52z m-193 344c-15 0-26-12-26-26 0-15 11-26 26-26 14 0 26 12 26 26 0 14-12 26-26 26z m-137-66c-14 0-26-12-26-26 0-14 12-26 26-26 14 0 26 12 26 26 0 14-12 26-26 26z m256 0c-14 0-26-12-26-26 0-14 12-26 26-26 15 0 26 12 26 26 0 14-11 26-26 26z m141-491h-558c-6 0-11-5-11-11 0-5 5-10 11-10h558c6 0 11 5 11 10 0 6-5 11-11 11z" horiz-adv-x="1000" />
<glyph glyph-name="20" unicode="&#xe813;" d="m709 404h-36v6c32 21 54 58 54 99 0 60-46 111-106 117-27 56-84 92-147 92-77 0-144-54-160-128-5 0-9 1-14 1-55 0-100-45-100-100 0-31 14-58 36-76v-361c0-40 33-73 73-73h291c40 0 73 33 73 73v28h36c50 0 91 43 91 95v132c0 52-41 95-91 95z m-36-66h36c14 0 25-13 25-29v-132c0-16-11-29-25-29h-36v190z m-451 153c0 43 35 78 78 78 7 0 13 0 20-2 3-1 6 0 8 1 3 2 5 5 5 8 10 69 71 121 141 121 57 0 108-33 131-86 1-3 5-6 9-6 51-3 91-45 91-96 0-53-43-97-96-97-20 0-39 6-55 18-3 2-8 2-11 0-21-11-45-18-69-18-17 0-33 3-48 9-4 1-7 1-10-1-3-2-5-6-5-9v-58c0-25-20-45-44-45-24 0-44 20-44 45v50c0 3-2 6-4 8-2 1-4 2-7 2 0 0-1 0-1 0-4 0-7-1-11-1-43 0-78 36-78 79z m378-489h-291c-28 0-52 24-52 52v347c13-6 28-10 43-10 1 0 1 0 1 0v-38c0-36 30-66 66-66 36 0 66 30 66 66v43c13-3 27-5 41-5 26 0 51 6 74 18 18-12 39-18 61-18 15 0 30 3 43 8v-345c0-28-23-52-52-52z m178 175c0-40-31-74-69-74h-36v24h36c25 0 46 23 46 50v132c0 28-21 50-46 50h-36v24h36c38 0 69-34 69-74v-132z m-431 88c-6 0-10-5-10-10v-196c0-5 4-10 10-10 6 0 11 5 11 10v196c0 5-5 10-11 10z m156 78c-6 0-11-4-11-10v-274c0-5 5-10 11-10s10 5 10 10v274c0 6-4 10-10 10z m-78-78c-6 0-11-5-11-10v-196c0-5 5-10 11-10 6 0 11 5 11 10v196c0 5-5 10-11 10z m156 78c-6 0-11-4-11-10v-274c0-5 5-10 11-10 5 0 10 5 10 10v274c0 6-5 10-10 10z" horiz-adv-x="1000" />
<glyph glyph-name="36" unicode="&#xe814;" d="m435 558c-22-12-47-25-47-54s25-41 47-53c5-3 10-6 15-9 2-1 4-2 6-2 3 0 7 2 9 5 3 5 1 12-4 15-5 3-11 7-16 10-22 11-35 20-35 34 0 15 13 23 35 35 21 12 46 25 46 53 0 29-25 42-46 54-22 12-35 20-35 35 0 14 13 23 35 34l3 2c5 3 7 10 5 15-3 5-10 7-15 4l-3-2c-22-12-47-25-47-53 0-29 25-42 47-54 21-12 35-20 35-35 0-14-14-22-35-34z m120 0c-22-12-46-25-46-54s24-41 46-53c6-3 11-6 16-9 1-1 3-2 5-2 4 0 7 2 9 5 3 5 2 12-3 15-5 3-11 7-17 10-22 11-35 20-35 34 0 15 13 23 35 35 22 12 47 25 47 53 0 29-25 42-47 54-22 12-35 20-35 35 0 14 13 23 35 34l4 2c5 3 7 10 4 15-3 5-9 7-14 4l-4-2c-22-12-46-25-46-53 0-29 24-42 46-54 22-12 35-20 35-35 0-14-13-22-35-34z m-421-177v-11c0-161 107-303 260-350v-59h212v59c153 47 259 189 259 350v11h-731z m459-343l-8-2v-54h-170v54l-8 2c-145 41-247 172-251 321h688c0-11-1-22-3-33h-230c-6 0-11-4-11-10 0-6 5-11 11-11h227c-3-13-6-26-10-39h-311c-5 0-10-5-10-10 0-6 5-11 10-11h304c-6-14-12-27-19-39 0 0-1 0-2 0h-207c-6 0-10-5-10-11 0-6 4-10 10-10h197c-9-14-19-27-29-39 0 0-1 0-1 0h-243c-5 0-10-5-10-11 0-6 5-11 10-11h224c-14-14-30-27-47-38h-90c-6 0-11-5-11-11 0-6 5-11 11-11h54c-20-10-42-19-65-26z" horiz-adv-x="1000" />
<glyph glyph-name="35" unicode="&#xe815;" d="m906 667h-200c-30 0-55-27-55-61v-137h-302v137c0 34-25 61-55 61h-200v-327c0 0 0 0 0 0h0v-102-5-141c0-6 4-11 10-11 6 0 11 5 11 11v141h43v-189c0-6 5-11 11-11 6 0 11 5 11 11v189h148v-141c0-6 5-11 10-11 6 0 11 5 11 11v141h43v-189c0-6 5-11 11-11 6 0 11 5 11 11v194c0 2-1 3-1 4v50c0 27-20 48-44 48h-20c0 0 0 0 0 0v42h146v-338c0-6 5-11 11-11 6 0 11 5 11 11v338h134v-42h-20c-24 0-44-21-44-48v-54-5-140c0-6 5-11 11-11 6 0 10 5 10 11v140h43c0-1 0-2 0-3v-186c0-6 5-11 11-11 5 0 10 5 10 11v186c0 1 0 2 0 3h148v-140c0-6 5-11 11-11 6 0 11 5 11 11v140h43c0-1 0-2 0-3v-186c0-6 5-11 11-11 6 0 10 5 10 11v186c0 1 0 2 0 3h0v434z m-514-375v-38h-277v65h254c12 0 23-12 23-27z m-64 48h-213c0 0 0 0 0 0v305h179c18 0 34-17 34-39v-137h-69c-6 0-10-4-10-10v-66c0-6 4-11 10-11h69v-42c0 0 0 0 0 0z m-58 63v45h63c1-1 3-2 5-2s4 1 6 2h307v-45h-381z m338-111c0 15 11 27 23 27h20v-65h-43v38z m277-38h-213v84c0 1 0 2 0 3v46c1 2 2 4 2 6 0 2-1 4-2 6v207c0 22 16 39 34 39h179v-391z" horiz-adv-x="1000" />
<glyph glyph-name="34" unicode="&#xe816;" d="m766 153c55 0 100 48 100 106 0 59-45 107-100 107-5 0-10-1-15-1 1 11 1 22 1 34v10h-560v-10c0-133 37-255 101-332h-159v-11c0-57 46-103 103-103h470c56 0 103 46 103 103v11h-159c23 29 44 64 59 103 17-11 36-17 56-17z m0 191c43 0 79-38 79-85 0-47-36-85-79-85-18 0-34 6-48 17 16 46 27 98 32 152 5 1 10 1 16 1z m-59-370h-470c-41 0-76 31-81 71h157c3-1 7-1 10 0h298c2 0 3-1 5-1 1 0 3 1 5 1h157c-6-40-40-71-81-71z m-386 93c-65 70-106 191-108 321h518c-1-12-1-23-2-35 0 0-1 0-1 0h-143c-6 0-11-4-11-10 0-6 5-11 11-11h142c-1-13-3-26-5-39h-217c-6 0-10-5-10-11 0-5 4-10 10-10h213c-3-13-6-26-9-39h-142c-6 0-11-5-11-11 0-6 5-10 11-10h135c-4-14-9-27-14-39h-183c-6 0-10-5-10-11 0-6 4-11 10-11h173c-6-13-13-27-21-39 0 0-1 0-1 0h-89c-6 0-11-4-11-10 0-6 5-11 11-11h76c-7-9-14-17-21-24h-301z m145 498c-22-11-47-25-47-53 0-28 25-42 47-53 5-3 10-6 15-9 2-1 4-2 6-2 3 0 7 2 9 5 3 5 1 12-4 15-5 3-11 6-16 9-22 12-35 20-35 35 0 15 13 23 35 35 21 12 46 25 46 53 0 29-25 42-46 54-22 11-35 20-35 34 0 15 13 23 35 35l3 2c5 3 7 9 5 14-3 6-10 7-15 5l-3-2c-22-12-47-25-47-54 0-28 25-41 47-53 21-12 35-20 35-35 0-14-14-23-35-35z" horiz-adv-x="1000" />
<glyph glyph-name="33" unicode="&#xe817;" d="m810 670c1 13-1 22-7 29-4 3-10 7-20 7-6 0-12-1-17-3-1 9-4 18-10 25-5 5-11 8-18 8-7 0-14-2-22-7-36-21-22-74-13-100l-48-66c-12 77-78 136-158 136-77 0-142-56-156-130l-44 60c9 26 23 79-13 100-8 5-15 7-22 7-7 0-13-3-18-8-6-7-9-16-10-25-5 2-11 3-17 3-10 0-17-4-20-7-6-7-8-16-8-29 3-47 70-55 93-57l47-65c-78-10-138-77-138-158 0-11 1-22 3-32 17-149 141-266 293-271v-102c0 0 0-1 0-1h-85c-5 0-10-5-10-11 0-5 5-10 10-10h190c6 0 11 5 11 10 0 6-5 11-11 11h-84c0 0 0 1 0 1v102c152 5 276 122 292 271 3 10 4 21 4 32 0 80-58 145-134 158l48 65c22 2 90 10 92 57z m-83 41c6 3 9 4 11 4 1 0 2-1 2-1 4-5 5-18 5-26l-2-21 18 11c3 2 14 7 22 7 2 0 3 0 4-1 1-1 3-3 2-12-1-26-41-34-62-36-1 1-2 2-3 3-1 0-2 1-2 1-7 21-17 58 5 71z m52-350c-13-62-69-109-135-109-68 0-125 50-136 115 1 5 1 9 1 13 4 0 7 1 11 1h261c0-6-1-13-2-20z m-565 20h261c3 0 7-1 10-1 0-4 1-8 2-13-11-65-68-115-137-115-66 0-121 47-135 109 0 7-1 14-1 20z m271 22h-9c-62 9-111 61-116 125 64-4 116-52 127-115-1-3-1-7-2-10z m24 0c0 3 0 7-1 10 11 63 63 111 127 115-5-64-54-116-117-125h-9z m-12 274c73 0 133-56 138-127-62-4-115-43-138-98-23 55-75 94-137 98 5 71 65 127 137 127z m-286-5c-1 9 1 11 2 12 0 1 2 1 4 1 8 0 19-5 22-7l18-11-2 21c-1 8 0 21 4 26 1 0 2 1 3 1 2 0 5-1 11-4 21-13 12-50 5-71-1 0-1-1-2-1-1-1-2-2-3-3-21 2-61 10-62 36z m127-144c4-53 34-99 77-125h-202c6 66 59 119 125 125z m159-420c-116 0-215 70-259 170 28-29 68-47 112-47 66 0 123 40 147 98 24-58 81-98 147-98 44 0 84 18 113 47-44-100-144-170-260-170z m285 295h-203c44 26 74 72 77 125 67-6 120-59 126-125z" horiz-adv-x="1000" />
<glyph glyph-name="32" unicode="&#xe818;" d="m865 538c-15 46-47 83-90 105-26 13-53 19-82 19-16 0-32-2-47-6-18 21-40 39-66 52-29 14-60 22-93 22-78 0-149-44-185-114-13-28-21-58-22-88-48-19-87-54-110-101-52-101-11-226 91-278 17-8 35-14 54-18l0 0c9-2 18-3 28-3 2-1 4-2 5-3 9-4 16-10 21-18 18-50 54-91 102-115 29-15 60-22 92-22 0 0 0 0 0 0 79 0 150 44 185 114 28 54 30 118 6 174-5 14-4 28 2 41 4 7 9 13 16 18 36 18 65 46 83 82 22 43 26 92 10 139z m-29-130c-16-31-41-57-74-72 0 0-1 0-1-1-10-7-18-16-24-27-9-18-10-38-3-57 0 0 0 0 0-1 22-50 20-108-5-157-31-63-95-102-166-102-29 0-57 7-83 20-43 22-75 59-91 104-1 1-1 2-2 3-7 11-17 20-29 26-3 2-7 3-10 4-1 1-2 1-3 1-8 0-17 1-26 3 0 0 0 0 0 0-17 3-33 9-48 16-92 47-128 158-82 250 22 43 59 76 105 92 5 1 8 6 8 10-1 30 6 59 19 86 32 63 96 102 166 102 30 0 58-6 84-19 24-13 46-30 63-52 2-3 7-5 11-3 16 4 32 7 48 7 25 0 50-6 72-17 38-19 67-52 80-93 14-41 10-84-9-123z m-270 115c-20 8-40 12-61 12-67 0-126-40-151-101-34-83 6-179 90-212 19-8 40-12 61-12 66 0 125 40 150 101 34 83-6 178-89 212z m50-238c0 0 0 0 0 0h-106c-6 0-11-5-11-11 0-6 5-11 11-11h85c-25-20-56-32-90-32-18 0-36 4-53 10-73 30-108 112-78 185 22 53 73 88 131 88 18 0 36-4 53-11 10-4 20-9 28-15h-76c-6 0-11-5-11-11 0-6 5-10 11-10h98c1 0 2 0 2 0 13-14 22-31 28-49h-128c-6 0-11-5-11-10 0-6 5-11 11-11h134c3-15 3-30 1-46h-135c-6 0-11-4-11-10 0-6 5-11 11-11h130c-2-4-3-7-4-11-5-12-12-24-20-34z" horiz-adv-x="1000" />
<glyph glyph-name="31" unicode="&#xe819;" d="m689 329c0 1-1 3-2 4-38 75-92 152-134 194v61c40 2 72 35 72 75 0 21-8 40-22 54-15 14-34 22-54 22-17 0-34-6-48-17-13 11-30 17-48 17-42 0-76-34-76-76 0-40 32-73 72-75l0-59c-75-75-188-260-188-353 0-119 107-216 239-216 132 0 239 97 239 216 0 39-20 95-50 153z m-290 334c0 30 24 55 54 55 16 0 30-6 40-18 2-2 5-3 8-3h0c3 0 6 1 8 3 10 12 25 18 40 18 15 0 28-6 39-16 10-10 16-24 16-39 0-30-25-54-55-54-2 0-4 0-5 0-3 0-6-1-9-3-2-2-3-5-3-8v-63l-61 0 0 63c0 3-2 6-4 8-2 2-4 3-7 3 0 0-1 0-1 0-2 0-4 0-6 0-30 0-54 24-54 54z m259-621c0 0-1 0-1 0h-133c-6 0-11-5-11-10 0-6 5-11 11-11h108c-37-25-82-40-132-40-120 0-218 88-218 195 0 86 110 266 182 337l73 0c8-8 17-18 26-29h-35c-6 0-11-5-11-11 0-5 5-10 11-10h52c12-16 25-34 37-53l-93 0c-6 0-11-4-11-10 0-6 5-11 11-11l100 0c2 0 4 1 6 2 11-18 21-36 31-54h-137c-6 0-11-5-11-11 0-6 5-11 11-11h148c10-17 18-35 24-52h-168c-6 0-11-5-11-11 0-5 5-10 11-10h176c7-19 12-37 13-53h-193c-6 0-11-4-11-10 0-6 5-11 11-11h194c-1-18-5-36-11-52 0 0-1 0-1 0h-178c-6 0-11-5-11-11 0-6 5-10 11-10h170c-10-20-24-38-40-53z" horiz-adv-x="1000" />
<glyph glyph-name="30" unicode="&#xe81a;" d="m736 567l23 173c1 6-3 11-9 12-6 0-11-4-12-9l-23-176h-257l27-252 2-21c-19 11-41 19-64 22-4 6-9 12-16 19-2 23-16 31-22 33-6 5-19 15-24 18-10 6-21 9-32 11-3 0-5 0-8 0-27 0-56-14-67-20-16-9-50-29-51-29l-13-8 12-10c1 0 22-16 27-20 6-5 17-11 27-14 5-2 10-2 16-2 13 0 27 3 38 9 14 9 26 17 39 28 5 5 20 12 30 16 3-1 6-4 7-12-7-7-12-13-16-19-91-13-159-91-159-183 0-103 83-186 185-186 47 0 90 18 123 47l4-40h223l65 613h-75z m-401-220c-12-10-23-18-36-25-7-4-18-7-27-7-4 0-7 0-10 1-6 2-15 7-21 11-2 2-8 6-13 11 11 6 27 15 37 20 21 12 45 19 62 17 8 0 16-3 24-7 1-1 4-3 8-6-9-4-19-10-24-15z m452 199l-11-104h-57l14 104h54z m-75 0l-14-104h-205l-11 104h230z m-202-264l-4 35-11 104h200l-46-348c-1-6 3-11 9-12 1 0 1 0 2 0 5 0 9 4 10 9l47 351h57l-40-382h-178c16 28 26 60 26 94 0 59-28 112-72 146 0 1 0 2 0 3z m-114 33c7-8 13-16 15-20-1-2-6-5-15-5-8 0-14 3-15 5 2 3 8 12 15 20z m0-347c-90 0-164 74-164 165 0 77 54 143 128 160 2-14 17-24 36-24 20 0 35 10 36 24 74-17 128-83 128-160 0-91-73-165-164-165z m146 7l-4 39c0 0 0 0 0 0 2 1 3 3 4 4h189l-4-43h-185z m-62 135c-7 0-12-6-12-13 0-7 5-13 12-13 7 0 13 6 13 13 0 7-6 13-13 13z m-49 29c-7 0-13-6-13-13 0-7 6-13 13-13 7 0 13 6 13 13 0 7-6 13-13 13z m49 37c-7 0-12-5-12-12 0-7 5-13 12-13 7 0 13 6 13 13 0 7-6 12-13 12z m-49 29c-7 0-13-5-13-13 0-7 6-12 13-12 7 0 13 5 13 12 0 8-6 13-13 13z m49 38c-7 0-12-6-12-13 0-7 5-13 12-13 7 0 13 6 13 13 0 7-6 13-13 13z m0-199c-7 0-12-6-12-13 0-7 5-13 12-13 7 0 13 6 13 13 0 7-6 13-13 13z m48 145c7 0 13 6 13 13 0 7-6 13-13 13-7 0-12-6-12-13 0-7 5-13 12-13z" horiz-adv-x="1000" />
<glyph glyph-name="29" unicode="&#xe81b;" d="m852 640v39h-266c0 0 0 0 0 0-37 0-69-23-85-57-16 34-48 57-85 57 0 0-1 0-1 0-1 0-1 0-1 0h-266v-39h-45v-535h242c2 0 3-1 4-1 43 0 78-33 78-73 0 0 0 0 0 0 0-6 5-11 11-11h120c0 0 0 0 1 0 0 0 0 0 0 0 6 0 11 5 11 11 0 40 35 73 78 73 1 0 2 1 4 1 0 0 0 0 0 0h245v535h-45z m-682 18h244c0 0 0 0 1 0 0 0 1 0 1 0 39 0 72-34 75-78-1-2-1-4-1-6 0-6 5-11 11-11 0 0 0 0 0 0 0 0 0 0 0 0 6 0 11 5 11 11 0 2 0 4 0 6 3 44 35 78 74 78h244v-491h-244c0 0 0 0 0 0-37 0-69-22-85-54-16 32-48 54-85 54 0 0-1 0-1 0-1 0-1 0-1 0h-244v491z m706-532h-224c-1 0-2 0-4 0 0 0 0 0 0 0-51 0-93-37-99-85h-101c-6 47-47 83-96 85-2 0-3 0-4 0h-224v493h24v-474h266c0 0 1 1 1 1 0 0 1-1 1-1 39 0 72-31 75-71-1-3-1-5-1-7 0-6 5-10 11-10 0 0 0 0 0 0 0 0 0 0 0 0 6 0 11 4 11 10 0 2 0 4 0 7 3 40 35 71 74 71 0 0 0 0 0 0h266v474h24v-493z m-92 318h-150c-6 0-11-5-11-11 0-6 5-11 11-11h150c6 0 11 5 11 11 0 6-5 11-11 11z m0-128h-150c-6 0-11-4-11-10 0-6 5-11 11-11h150c6 0 11 5 11 11 0 6-5 10-11 10z m-224 43h224c6 0 11 4 11 10 0 6-5 11-11 11h-224c-6 0-11-5-11-11 0-6 5-10 11-10z m0 127h224c6 0 11 5 11 11 0 5-5 10-11 10h-224c-6 0-11-5-11-10 0-6 5-11 11-11z m74 64h150c6 0 11 4 11 10 0 6-5 11-11 11h-150c-6 0-11-5-11-11 0-6 5-10 11-10z m-74-319h224c6 0 11 5 11 11 0 6-5 11-11 11h-224c-6 0-11-5-11-11 0-6 5-11 11-11z" horiz-adv-x="1000" />
<glyph glyph-name="28" unicode="&#xe81c;" d="m310 552h-1l-6 168c0 6-5 11-11 11-6-1-10-6-10-11l6-168h-18v168c0 6-4 11-10 11-6 0-11-5-11-11v-168h-15v168c0 6-4 11-10 11-6 0-11-5-11-11v-168h-17l5 168c1 5-4 10-10 11-6 0-11-5-11-11l-6-168h0l-1-9c0-4-2-35-2-44 0-12 9-31 21-40 9-6 20-18 21-30 1-17-6-153-9-204-2-28-12-119-17-174-4-36-5-39-5-40 0-29 27-52 60-52 33 0 60 23 60 52 0 1 0 4-4 41-6 55-16 145-17 173-4 51-11 187-10 204 2 12 12 24 21 30 12 9 21 28 21 40 1 9-2 40-2 44l-1 9z m-18-52c0-6-7-19-12-23-8-6-28-23-30-46-1-21 8-179 9-208 2-28 12-118 17-173 3-20 4-37 5-40-1-16-18-30-39-30-21 0-38 14-38 30 0 3 2 20 4 39 5 55 15 146 17 174 2 29 11 187 9 208-2 23-21 40-30 46-5 4-12 17-12 23 0 5 1 20 2 31h97c0-11 1-26 1-31z m216 240c-50 0-100-103-100-178 0-76 41-100 68-107 4-6 6-11 6-16 2-17-6-153-9-204-2-28-11-119-17-174-4-37-4-39-4-40 0-29 27-52 60-52 33 0 59 23 59 52 0 1 0 4-4 41-6 54-15 145-17 173-4 61-10 189-9 204 1 6 3 12 8 19 28 10 59 37 59 104 0 75-50 178-100 178z m32-263l-3-1-2-2c-9-11-14-22-15-33-2-21 7-179 9-208 2-28 11-119 17-173 2-20 4-37 4-40 0-16-17-30-38-30-21 0-38 14-39 30 1 3 2 20 4 39 6 54 16 146 17 174 2 29 11 187 9 208 0 10-5 20-12 30l-3 3-3 0c-37 9-56 38-56 88 0 73 48 157 79 157 31 0 79-84 79-157 0-46-16-75-47-85z m276-251l-5 79c0 2 0 3-1 4 1 2 1 4 1 6 0 1 0 5 0 13 2 347-2 364-3 369l0 0c-3 14-10 43-32 43-45 0-80-92-80-172 0-3-1-7-1-11l0-192c0-20 1-38 15-56 7-9 16-15 26-20l-3-50c-11-170-14-217-14-218 0-29 25-52 55-52 30 0 55 23 55 52 0 1-2 43-13 205z m-89 96c-10 13-11 25-11 43v190c1 5 1 10 1 13 0 82 36 151 59 151 1 0 6-3 11-26l0-1c2-6 5-53 3-364 0-8 0-12 0-13 0-3-1-5-2-7-6-2-11-3-17-3h-9c-13 0-26 6-35 17z m47-332c-19 0-34 14-34 30 0 4 9 133 14 218l3 46c2 0 3 0 5 0h9c7 0 14 1 20 3l4-63c5-84 13-200 13-203 0-17-15-31-34-31z" horiz-adv-x="1000" />
<glyph glyph-name="27" unicode="&#xe81d;" d="m548 567c27 16 45 46 45 80 0 52-42 93-93 93-52 0-93-41-93-93 0-34 18-64 45-80-143-23-254-148-253-298 0-1 0-1 0-1l0-11c0-31 22-57 52-68 0 0 0-1 0-1l86-229h310l101 231c0 0 0 0 1 1 30 10 52 37 52 68l0 10c0 0 0 0 0 0 0 150-110 275-253 298z m-120 80c0 40 32 72 72 72 40 0 72-32 72-72 0-40-32-72-72-72-40 0-72 32-72 72z m-152-463c2 0 4 0 6 0h0c25 0 47 9 62 25l44-229h-36l-76 204z m264-204l21 205c5-1 9-1 14-1 25 0 47 10 62 25l-51-229h-46z m-22 0h-41l-17 209c18 7 33 19 42 34 8-14 22-26 38-32l-22-211z m-79 204l17-204h-46l-44 230c15-16 37-26 62-26 4 0 7 0 11 0z m194-204h-26l52 228c15-14 36-22 59-22 2 0 4 0 5 0l-90-206z m147 280c0-1 0-1 0-1 0-29-28-52-62-52-31 0-56 19-61 45 1 2 1 4 1 5 0 2-1 4-1 5l-1 2c-2 4-7 7-12 5-5-1-8-5-8-10 0-2 0-5 0-7-3-27-30-47-61-47-34 0-61 24-61 52 0 6-5 11-11 11h-3c-2 0-5-1-7-3-2-2-3-5-3-8 0-23-18-43-43-49-1-1-2-1-2-1-6-1-11-2-17-2-34 0-61 23-61 52 0 3-1 6-3 8-2 2-5 3-8 3 0 0 0 0 0 0l-2 0c-6 0-11-5-11-11 0-29-27-52-61-52l0-11v11c-34 0-62 23-62 52 0 0 0 0 0 1l0 11c0 154 125 280 280 280 154 0 280-125 280-280l0-9z m-273 335c39 7 48 44 47 63 0 6-5 11-11 10-6 0-11-5-10-11 0-1 0-36-30-41-5-1-9-7-8-12 1-5 5-9 10-9 1 0 2 0 2 0z" horiz-adv-x="1000" />
<glyph glyph-name="26" unicode="&#xe81e;" d="m372 274c-6 3-12 2-15-3l-24-41-22 19c-3 2-6 3-9 3-3-1-6-3-7-6l-33-57c-3-5-1-11 4-14 2-1 3-2 5-2 4 0 7 2 9 6l27 46 22-19c2-2 5-3 8-2 3 0 6 2 8 5l30 51c3 5 2 11-3 14z m154-73c18 0 35 4 52 11 58 29 83 100 55 159-20 41-62 67-107 67-18 0-36-4-52-12-59-29-83-100-55-159 20-40 62-66 107-66z m-43 206c14 6 28 10 43 10 37 0 71-21 87-55 22-45 6-99-35-125 0 0 0 1 0 1 1 10-6 19-16 20-10 1-19-6-21-16 0-7 3-14 8-17-7-2-15-3-23-3-38 0-71 21-88 55-23 48-3 106 45 130z m406-290c1 1 1 2 1 2 6 117-18 236-69 342-52 107-130 198-226 266-5 3-11 2-15-2l-473-599c-3-4-3-8-1-12 0 0 0 0 0 0l-2-57c0-2 1-5 3-7 2-2 5-4 8-4l163 0v-17c0-34 27-61 61-61 34 0 61 27 61 61l1 17c0 0 0 0 0 0l28 0c0 0 0 0 0 0 0 0 1 0 1 0l252 1 198-1c3 1 6 2 8 4 2 2 3 4 3 7l-2 60z m-298 587c89-65 162-152 210-252 49-100 72-211 68-322l-90 0c5 97-15 195-58 283-43 88-107 164-186 221l56 70z m-465-636l1 40 151 0v-41l-152 1z m258 52l-5-90c0 0 0-1 0-1 0-22-18-40-40-40-22 0-40 18-40 40v90c0 3-1 6-3 8-2 2-5 3-7 3 0 0 0 0 0 0l-152 0 385 487c76-55 138-128 180-214 41-85 60-179 56-273l-364 0c-5 0-10-5-10-10z m298-52l-280 0 3 41 463 0 2-41-188 0z m-190 202c10-1 19 6 20 17 1 10-6 19-16 20-10 1-19-6-20-16-1-11 6-20 16-21z m76 46c10-1 19 6 20 16 1 11-6 20-16 21-10 1-19-6-20-17-1-10 6-19 16-20z m-66 49c10-1 19 6 21 16 1 10-7 19-17 21-10 1-19-7-20-17-1-10 6-19 16-20z" horiz-adv-x="1000" />
<glyph glyph-name="25" unicode="&#xe81f;" d="m813 344c0 81-55 149-129 169l99 97c4 4 4 11 0 15-4 4-11 4-15 0l-103-101c0 0 0 1-1 1l86 173c2 5 0 12-5 14-5 3-12 1-14-5l-78-157c-30 55-89 90-153 90-80 0-149-53-169-130-79-15-139-83-142-165h-1v-11c0-137 90-258 220-299v-50h184v50c130 41 220 162 220 299v6c1 2 1 3 1 4z m-21 1h-33c-1 66-55 120-121 120-48 0-90-29-109-70-5 13-10 25-17 36 27 40 74 67 126 67 84 0 153-69 154-153z m-88 0c0 36-30 65-66 65-36 0-66-29-66-65h-33c0 54 44 98 99 98 54 0 99-44 99-98h-33z m-21 0h-90c0 24 20 44 45 44 25 0 45-20 45-44z m-253 0c-4 33-32 59-66 59-35 0-63-26-66-59h-34c4 51 47 92 100 92s95-41 99-92h-33z m-22 0h-89c3 21 22 38 45 38 22 0 41-17 44-38z m109 0h-33c0 23 6 45 15 65 11-20 17-42 18-65z m-58 139c7 16 23 27 41 27 16 0 31-9 39-23-16-11-29-24-41-39-11 14-24 26-39 35z m98 15c-12 20-33 33-57 33-26 0-48-15-60-37-9 5-20 9-31 12 17 35 52 58 91 58 37 0 71-21 88-54-11-3-21-7-31-12z m-57 120c63 0 120-39 143-97 0 0 0 0 0-1 0 0 1-1 1-2-2 0-4 0-6 0-10 0-19-1-29-3-20 43-62 70-109 70-49 0-93-30-112-75-8 1-16 2-24 2-4 0-7 0-10-1 20 64 79 107 146 107z m-136-128c50 0 94-23 122-60-6-12-12-24-16-37-20 38-60 64-106 64-65 0-117-50-121-113h-33c4 81 71 146 154 146z m214-437l-7-2v-46h-142v46l-8 2c-121 34-207 144-212 269h582c-5-125-91-235-213-269z" horiz-adv-x="1000" />
<glyph glyph-name="24" unicode="&#xe820;" d="m806 329c0 2-1 3-1 4-4 89-75 161-163 167v39c30 22 105 86 73 145-11 20-24 30-39 30-19 0-35-17-44-31-10 14-26 32-45 32-15 0-28-11-39-31-31-59 42-121 73-144 0 0 0 0 0-1v-39c-61-4-116-40-144-96-27 22-61 36-98 39v39c30 22 105 85 73 145-11 20-24 30-39 30-19 0-35-17-44-31-10 14-26 31-45 31-15 0-28-10-39-30-31-59 42-121 73-144 0 0 0-1 0-1v-39c-88-6-159-78-163-168 0-1 0-2 0-3v-288h348v57h263v288z m-22-146h-241v65c7 6 12 14 17 22 7 13 11 18 17 18 7 0 11-5 18-18 7-12 16-28 36-28 19 0 28 16 36 28 7 13 10 18 17 18 6 0 10-5 17-18 8-12 17-28 36-28s29 16 36 28c5 8 8 13 11 16v-103z m-263-58h-305v117c5-2 8-8 14-17 7-13 17-29 37-29 19 0 29 16 36 29 8 12 12 18 19 18 7 0 11-6 18-18 8-13 17-29 37-29 20 0 29 16 37 29 7 12 11 18 18 18 7 0 11-6 19-18 7-13 16-29 36-29 18 0 27 12 34 24v-95z m-305-21h305c0 0 0 0 0 0v-41h-305v41z m327 57h241v-41h-241v41z m24 513c5 9 12 19 20 19 13 0 29-23 35-35l10-19 9 19c6 11 22 35 35 35 8 0 15-10 20-19 24-44-40-97-64-116-24 19-88 72-65 116z m65-195c84 0 152-69 152-154 0-1 0-2 0-3v-13c-15-3-23-17-29-28-7-12-11-18-18-18-6 0-10 6-17 18-7 13-17 29-36 29-20 0-29-16-36-29-7-12-11-18-17-18-7 0-11 6-18 18-7 13-16 29-36 29-19 0-28-16-36-29-3 42-20 80-48 108 25 55 79 90 139 90z m-328 138c5 9 12 19 20 19 13 0 29-24 35-35l10-19 9 19c6 11 22 34 35 34 8 0 15-10 20-18 24-44-39-98-64-116-24 18-88 72-65 116z m65-195c84 0 152-69 152-154 0-1 0-2 0-3v-9c-6-6-11-13-15-21-8-12-12-18-19-18-7 0-11 6-18 18-8 13-17 29-37 29-20 0-29-16-37-29-7-12-11-18-18-18-7 0-11 6-18 18-8 13-17 29-37 29-20 0-29-16-37-29-7-12-11-18-18-18-7 0-12 6-19 18-7 12-15 26-32 29v1c0 1 1 2 1 3 0 85 68 154 152 154z m-153-417v37h305v-37h-305z m327 58v36h241v-36h-241z" horiz-adv-x="1000" />
<glyph glyph-name="23" unicode="&#xe821;" d="m714 540c-24 88-113 150-214 150-101 0-190-62-214-150-84-4-151-66-151-142 0-73 58-121 116-137 21-6 42-11 63-16v-235h372v232c1 0 2 1 3 2 69 13 135 35 161 95 9 20 15 42 15 59 0 76-67 138-151 142z m117-192c-24-54-89-73-156-85h-100c-6 0-10-5-10-11 0-6 4-11 10-11h90v-35h-139c-5 0-10-5-10-11 0-6 5-11 10-11h139v-35h-90c-6 0-10-5-10-11 0-6 4-11 10-11h90v-35h-139c-5 0-10-5-10-11 0-6 5-11 10-11h139v-39h-330v232l-8 1c-24 5-47 11-70 17-50 14-100 55-100 117 0 67 61 121 137 121h9l2 8c18 82 100 142 195 142 93 0 174-57 194-137 0-1 0-3 0-4 1-7 2-15 2-22 0-26-8-52-23-75-3-5-2-12 3-15 2-1 4-2 6-2 4 0 7 2 9 5 17 27 26 57 26 87 0 4 0 9-1 13 71-5 127-58 127-121 0-17-6-37-12-50z" horiz-adv-x="1000" />
<glyph glyph-name="22" unicode="&#xe822;" d="m825 252c0 44-9 86-25 124 0 0 0 0 0 0 0 4-1 6-4 8-48 108-154 185-278 192 16 7 28 23 28 42 0 25-21 45-46 45-25 0-46-20-46-45 0-19 12-35 28-42-171-10-307-151-307-324v-11h650v11z m-325 390c13 0 24-11 24-24 0-14-11-25-24-25-13 0-24 11-24 25 0 13 11 24 24 24z m-303-380c5 163 139 293 303 293 50 0 96-12 138-33h-45c-6 0-11-5-11-11 0-5 5-10 11-10h78c1 0 1 0 2 0 19-13 37-29 52-46h-225c-6 0-11-5-11-11 0-6 5-11 11-11h243c11-14 20-30 29-46h-179c-6 0-11-5-11-11 0-5 5-10 11-10h188c6-15 11-30 15-46h-296c-6 0-11-5-11-11 0-6 5-11 11-11h300c2-11 3-24 3-36h-606z m694 30c-6 0-11-5-11-11 0-42-35-77-78-77h-604c-43 0-78 35-78 77 0 6-5 11-11 11-5 0-10-5-10-11 0-54 44-99 99-99h291v-125c0 0 0 0 0 0h-51c-6 0-10-5-10-11 0-5 4-10 10-10h124c6 0 11 5 11 10 0 6-5 11-11 11h-51c0 0 0 0 0 0v125h291c55 0 99 45 99 99 0 6-4 11-10 11z" horiz-adv-x="1000" />
<glyph glyph-name="21" unicode="&#xe823;" d="m688 446h-8c3 15 4 30 4 45 0 131-83 238-184 238-101 0-184-107-184-238 0-15 1-30 3-45h-7c-25 0-45-18-45-41v-12c0-22 20-41 45-41h9c0-11 1-23 3-34 13-87 64-156 129-178v-88h-61v-81h216v81h-61v88c63 22 112 88 128 171 2 13 4 27 4 41h9c24 0 45 19 45 41v12c0 23-21 41-45 41z m-347 0c-2 15-4 30-4 45 0 119 73 217 163 217 89 0 162-98 162-217 0-16-1-31-3-45h-318c0 0 0 0 0 0z m370-53c0-11-10-19-23-19h-30l0-1h-147c-6 0-11-5-11-11 0-6 5-10 11-10h147c-1-13-2-26-4-38-2-6-3-13-5-20-2 2-4 3-7 3h-131c-6 0-11-5-11-11 0-6 5-10 11-10h131c1 0 1 0 1 0-7-21-16-40-28-56-1 0-3 1-4 1h-100c-6 0-11-5-11-11 0-6 5-11 11-11h88c-19-20-42-34-66-41l-8-3v-124h62v-39h-174v39h61v124l-7 3c-61 17-109 82-122 163-2 14-3 28-3 42l0 11h-30c-13 0-24 8-24 19v12c0 11 11 20 24 20h376c13 0 23-9 23-20v-12z" horiz-adv-x="1000" />
</font>
</defs>
</svg>
